<svg xmlns="http://www.w3.org/2000/svg" xml:space="preserve" width="210mm" height="297mm" style="shape-rendering:geometricPrecision;text-rendering:geometricPrecision;image-rendering:optimizeQuality;fill-rule:evenodd;clip-rule:evenodd" viewBox="0 0 21000 29700"><defs><style>.str3{stroke-width:19.05;stroke-linecap:round;stroke-linejoin:round}.str0,.str1,.str3{stroke:#000;stroke-miterlimit:22.9256}.str1{stroke-width:14.82;stroke-linecap:round;stroke-linejoin:round}.str0{stroke-width:26.46}.fil0,.fil3{fill:none}.fil3{fill-rule:nonzero}.fil7{fill:#005bbb}.fil6{fill:#ffd200}.fil1,.fil8{fill:#005bbb;fill-rule:nonzero}.fil8{fill:#ffd500}</style></defs><symbol id="_ArchTick-9" viewBox="-387035.47 125177.29 20.57 20.57"><path id="path3230" d="m-387026.11 125188.5 1.85-1.85" class="fil0 str0"/></symbol><symbol id="_ArchTick-9-1" viewBox="-387035.47 125177.29 20.57 20.57"><path id="path3230-9" d="m-387026.11 125188.5 1.85-1.85" class="fil0 str0"/></symbol><symbol id="_ArchTick" viewBox="-387035.47 125177.29 20.57 20.57"><path id="path3004" d="m-387026.11 125188.5 1.85-1.85" class="fil0 str0"/></symbol><symbol id="_ArchTick-1" viewBox="-387035.47 125177.29 20.57 20.57"><path id="path3004-1" d="m-387026.11 125188.5 1.85-1.85" class="fil0 str0"/></symbol><g id="Слой_x0020_1"><g id="_1504804435760"><path d="M-42515.37 5029.93h3200v3200h-3200z" class="fil1"/><path d="M-40888.71 5663.93c-180.63-1.69-278.54 27.01-342.69 48.96l-13.51-59.08 25.33-6.76-27.01-138.42-96.22-23.64-28.7-168.81 222.83-52.33 86.1 87.78 13.51 118.17 67.52-6.75-21.95-45.58-15.19-180.63h259.98l-15.19 180.63-20.26 45.58 67.52 6.75 13.51-118.17 86.1-86.1 222.84 52.33-28.7 168.82-94.54 23.63-27.01 138.43 25.32 8.44-11.81 59.08c-143.51-32.07-234.67-48.95-347.78-52.33z" class="str1" style="fill:#fff;fill-rule:nonzero"/><path d="M-41244.91 5508.62c104.67-30.39 226.22-47.27 356.2-47.27 131.68 0 254.92 18.57 361.27 48.96m-703.96 65.84c101.29-28.7 217.77-45.58 341.01-45.58 126.61 0 243.09 16.88 347.76 45.58m-682.02 69.21c99.6-27.01 214.4-43.89 334.26-43.89 121.55 0 238.03 16.88 339.32 45.58m-801.88-246.47 216.09-48.96 81.03 65.84m-283.61 67.53 216.08-45.59 50.65 32.08m-118.17 21.95-74.28-27.01-13.51-77.66m60.78-21.95-11.82-81.03m106.35 153.62-25.32-173.88m86.09 276.86-8.44-67.52m102.98 129.98-5.06-67.52m-162.07 87.78-10.13-67.52m258.29-23.64v-70.9m462.56-60.78-212.71-48.95-82.72 64.15m283.61 67.53-209.32-47.27-57.4 33.76m118.16 21.95 74.28-27.01 13.51-77.66m-60.77-21.95 11.81-82.71m-97.91 153.62 18.57-173.88m-86.09 278.54 8.44-67.52m-102.98 129.98 5.06-67.52m160.37 91.16 10.14-67.52m-256.61-27.02v-70.9m28.7-3.38 13.51-43.89v-84.41m-77.65-3.37v-82.72m-86.1 86.09h239.72m-232.97 86.1h226.21" class="fil3 str1"/><path d="M-40623.66 5690.94c101.29 23.63 221.14 82.72 285.3 82.72 48.96 0 92.85-38.82 91.16-81.03-1.69-25.32-37.14-28.7 0-28.7 33.77 0 47.27 27.01 54.03 47.27 5.06-21.95 30.39-52.33 75.96-52.33 50.65 0 67.52 48.95 70.91 81.03 1.69 23.63 64.15 84.4 69.21 89.47 5.07 5.07 30.39 28.7 42.21 21.95 11.81-6.75 23.63-11.82 35.45-11.82 48.95 0 79.34 27.01 79.34 70.91 0 43.89-30.39 67.52-64.15 67.52-35.45 0-52.33-30.39-52.33-54.02 0-20.26 20.25-38.83 42.2-38.83 42.21 0 37.14 52.34 20.26 54.03 16.88-3.38 18.57-54.03-20.26-54.03-13.5 0-25.32 5.07-42.2 27.01-13.51 16.88-21.95 37.14-30.39 67.53-13.51 55.7-25.33 288.67-25.33 288.67 32.08-18.56 65.84-33.76 38.83-86.1 15.19 5.07 37.14 13.51 43.89 35.45 6.75 21.95-1.69 33.77-11.82 57.4 11.82-5.06 35.45 10.13 37.14 30.39 1.69 20.26-13.5 33.77-27.01 33.77-20.25 0-32.07-27.01-16.88-32.08 10.13-1.69 1.69-5.06-5.06-5.06-28.7-3.38-47.27 16.88-47.27 38.82 25.32 6.75 38.82 21.95 42.21 30.39 6.75 23.64-20.26 3.38-37.14 23.64-16.89 20.25-18.57 59.08 1.69 69.21 20.25 10.13 40.51-6.75 37.14-25.32-1.69-82.73 113.1-77.66 113.1 8.44 0 42.2-32.07 74.28-72.59 79.34-59.08 13.51-62.46 128.3-86.09 160.37 15.19-3.37 21.94-16.88 25.32-32.07 3.37 5.06 10.13 15.19 8.44 32.07-1.69 16.88-20.26 38.83-38.82 45.58 0 6.75-1.7 18.57 0 28.7 3.37 40.52 81.03 136.74 81.03 280.24 0 145.18-82.73 373.08-369.71 538.52-258.29 148.55-368.02 173.88-411.91 319.06-32.07-15.19-62.46-30.39-81.03-33.77-10.13 10.13-20.26 27.01-37.14 70.91-15.19-10.13-21.95-30.39-30.39-30.39-5.07 0-32.08 48.96-54.02 72.59-21.95-23.63-47.27-72.59-52.34-72.59-8.44 0-15.19 20.26-30.39 30.39-15.19-43.89-25.32-60.78-37.14-70.91-18.56 3.38-48.95 18.57-81.03 33.77-43.9-145.18-153.63-170.51-411.91-319.06-286.99-165.44-369.71-395.03-369.71-538.52 0-145.18 79.35-239.72 81.03-280.24 0-10.12-1.68-23.63 0-28.7-18.57-5.06-37.14-27.01-38.82-45.58-1.69-16.88 5.06-27.01 8.44-32.07 3.37 15.19 10.12 28.7 25.31 32.07-21.94-32.07-23.63-146.86-82.71-160.37-38.83-6.75-72.59-37.14-72.59-79.34 3.37-81.03 106.35-84.42 113.1-8.44-1.69 18.56 16.89 33.76 37.15 25.32 27-16.88 11.81-54.02 1.69-69.21-15.2-20.26-42.21 0-37.14-23.64 1.69-8.44 16.88-25.32 42.2-30.39 0-21.95-18.56-42.2-47.26-38.82-6.75 1.69-13.51 3.37-5.07 5.06 16.88 13.51 0 32.08-16.88 32.08-15.2-.01-28.71-11.83-27.02-33.77 1.69-20.26 25.33-35.45 37.14-30.39-11.81-21.95-18.57-33.76-11.81-57.4 6.75-23.63 28.7-30.39 43.89-35.45-27.01 50.65 6.75 67.53 38.82 86.1 0 0-11.81-232.97-25.32-288.67-5.06-33.77-13.5-54.03-27.01-70.91-16.88-20.26-28.7-27.01-42.21-27.01-40.51 0-38.82 50.65-20.25 54.02-16.88-1.69-21.95-54.02 20.25-54.02 21.95 0 42.21 18.57 42.21 38.83 0 25.32-16.88 54.02-52.33 54.02s-64.15-23.63-64.15-67.52c0-43.9 30.39-70.91 79.34-70.91 11.82 0 25.32 3.38 35.45 11.82 11.82 6.75 37.14-15.2 42.21-21.95 5.06-5.07 65.84-65.84 69.21-89.48 3.38-32.07 18.57-81.03 70.91-81.03 45.58 0 70.9 30.39 75.96 52.34 5.07-20.26 20.26-47.27 54.03-47.27 37.14 0 1.69 3.37 0 28.7 8.44 167.13 303.86 15.19 376.45-1.69 182.32-37.14 346.08-35.45 525.02 3.37v.01z" class="str1" style="fill:#ffd200;fill-rule:nonzero"/><path d="M-41035.57 5670.68c67.52-5.06 102.98 33.77 108.04 69.22 3.37 27-3.38 52.33-20.26 67.52 27.01-3.37 52.33 6.75 60.77 21.95 8.45-15.19 33.77-23.63 60.78-21.95-16.88-15.19-23.63-40.52-20.26-67.52 5.07-35.45 42.21-74.28 109.73-69.22" class="fil3 str1"/><path d="m-40875.23 5761.76-12.21-18.32-12.21 18.32 12.21 18.31z" class="fil3" style="stroke:#000;stroke-width:14.36;stroke-linecap:round;stroke-linejoin:round;stroke-miterlimit:22.9256"/><path d="M-40887.02 7782.57c6.76 0 20.26 0 20.26 21.95 0 21.94-10.13 55.7-20.26 55.7-11.81 0-20.25-35.45-20.25-55.7 0-20.26 13.5-21.95 20.25-21.95zm-86.09 65.84 21.95 35.45m150.24-35.45-21.95 35.45" class="fil3 str1"/><g id="decoration"><path d="m-41153.74 5741.59 16.88-6.75 3.38 18.56m-143.5 11.82 18.57-5.07-5.07 15.2m133.37-59.09 10.13-1.69 1.69 10.13m-131.68 21.95 10.14-1.69v10.13M-40949.48 5809.11c-6.75 5.07-21.95 16.88-40.52 16.88-18.56 0-47.26-11.81-47.26-45.58 0-33.76 23.63-43.89 42.21-43.89 20.25 0 32.07 13.51 32.07 30.39 0 16.88-10.13 27.01-21.95 28.7-11.82 1.69-20.26-5.07-20.26-15.19 0-10.13 8.44-11.82 10.14-11.82" class="fil3 str1"/><path d="M-41580.85 5711.2c0 60.77 37.14 113.1 97.92 116.48 60.77 3.37 16.88-21.95 60.77-21.95 45.58 0 25.32 18.57 10.13 28.7 60.77 3.37 89.47-50.65 131.68-52.33-1.69 13.5-10.13 30.39-28.7 40.51 74.28 28.7 121.55-60.77 155.31-57.4-28.7 45.59 16.89 82.73 79.34 57.4-18.56-11.81-27-37.14-20.25-57.4 6.75-20.25 28.7-43.89 62.46-43.89 33.77-1.69 54.02 13.51 64.15 28.7M-41771.61 5883.39c-3.38-10.13-20.26-33.76-28.7-40.51m67.53-23.64c-1.69-3.37-18.57-18.56-25.32-23.63m3.37 52.33s-15.19-23.64-23.63-28.7m67.52-27.01c-3.37-1.69-18.56-8.44-28.7-15.19m48.96-15.19c-10.13 0-27.01-3.38-37.14-8.45m62.46-45.58c-23.63 0-40.51 13.51-55.7 30.39m42.2-5.06c-13.51 0-33.77 5.06-43.89 13.5" class="fil3 str1"/><path d="M-41763.17 6286.86c-3.38-5.07-10.13-15.19-16.88-21.94" class="fil3 str3"/><path d="M-41879.65 6453.99c18.57-15.19 1.68-35.45-13.51-37.14-15.19 0-27.01 11.81-28.7 32.07 0 20.26 15.19 38.83 38.83 38.83 23.63 0 42.2-20.26 43.89-45.58" class="fil3 str1"/><path d="M-41901.6 6482.69c45.58 33.76 91.16 0 109.73-27.01" class="fil3 str1"/><path d="M-41879.65 6526.58c5.07 0 10.13 1.69 15.19 1.69 45.58-1.69 94.54-23.63 121.55-70.91 25.32-45.58 30.39-62.46 28.7-121.54-1.69-43.89 10.13-65.84 18.56-77.66 6.75-10.13 8.45-11.82-5.06-10.13-18.57 1.69-30.39 8.44-38.83 15.19-23.63 20.26-32.07 54.02-16.88 89.47-16.88-16.88-27.01-16.88-37.14-15.19M-41837.45 5849.63c37.14 23.63 67.52 86.09 75.96 172.19 10.14 113.11 11.82 185.7 23.64 238.03M-41690.58 7259.24c-15.19 28.7-21.95 106.35-15.19 160.37m-25.33-373.08c0 84.41-69.21 109.73-60.77 261.66m256.6 177.26 3.38 21.95-15.19-1.69m-11.82-54.02 5.07 32.07-21.95-1.69m59.08 25.33 6.75 13.51-11.82-3.38m-227.89-305.56c1.69 21.95 5.06 42.21 28.7 37.14m-114.8-212.71c-3.38 18.57-1.69 42.21 11.82 67.52 15.19 25.33 1.69-15.19 28.7-25.32m-3.38-209.33c-1.69 13.51 3.38 27.01 18.57 27.01-1.69 8.44 5.06 18.57-13.51 38.82" class="fil3 str1"/><path d="M-41788.49 6732.53c28.7 8.44 47.26 1.69 59.08-6.75-32.08 20.26-8.44 43.89-33.77 67.53 18.57 1.69 25.33-8.45 28.7-11.82 6.75 45.58-40.51 42.21-33.76 91.16 11.81 1.69 20.26 1.69 30.39-13.5 16.88 77.65-69.22 104.66-75.97 163.75-5.06 45.58 21.95 33.76 28.7 18.57 6.75-13.51 3.38-32.08 3.38-43.89 32.07 15.19 33.76 5.06 33.76-21.95 0-28.7 16.88-47.27 42.21-50.65-13.51 67.52 23.63 101.29 23.63 162.06 1.69 79.34-47.26 87.78-45.58 118.17 1.69 25.33 23.63 32.08 23.63-33.76 11.82 3.37 23.64 13.51 28.7 21.95 5.07-8.44 21.95-11.82 32.08-15.19 6.75 16.88 11.81 37.14 10.13 65.84-1.69 27-20.26 48.95-33.77 64.14-13.5 16.89-25.32 59.09-8.44 59.09 30.39 1.69 1.69-45.58 32.08-92.85 20.25 35.45 38.82 60.77 35.45 106.35-1.69 23.64-8.44 69.22 16.88 79.35M-41793.55 6535.02c-6.76 5.07-33.77 11.82-50.65 13.51m52.33 13.5c-11.82 6.76-38.82 10.13-38.82 10.13m43.89 16.88c-10.14 5.06-33.77 6.75-35.45 8.44m45.57 16.88c-10.13 5.07-27.01 5.07-37.14 6.75m48.97 16.89c-13.51 5.07-30.39 6.75-42.21 6.75m59.08 16.88c-13.51 5.07-42.2 6.75-54.02 5.07m84.41 13.5c-11.81 10.13-47.26 16.88-77.65 8.44M-40888.71 7922.68c-20.25-20.26-55.7-75.96-67.52-101.29-11.82 0-18.57 11.82-48.96 11.82-32.07 0-40.51 6.75-52.33 11.81-119.86-153.62-232.97-160.37-373.08-273.48-65.84-54.02-55.71-101.29-81.03-145.18-25.33-43.89-69.22-32.07-89.48-48.96 20.26 16.89 64.15 5.07 89.48 48.96" class="fil3 str1"/></g><path d="m-40624.5 5741.59-16.89-6.75-3.37 18.56m143.49 11.82-18.57-5.07 5.07 15.2m-133.37-59.09-10.14-1.69-1.69 10.13m131.69 21.95-10.13-1.69v10.13M-40828.77 5809.11c6.75 5.07 21.94 16.88 40.51 16.88 18.57 0 47.27-11.81 47.27-45.58 0-33.76-23.64-43.89-42.21-43.89-20.26 0-32.07 13.51-32.07 30.39 0 16.88 10.13 27.01 21.95 28.7 11.81 1.69 20.25-5.07 20.25-15.19 0-10.13-8.44-11.82-10.13-11.82" class="fil3 str1"/><path d="M-40197.41 5711.2c0 60.77-37.14 113.1-97.91 116.48-60.77 3.37-16.88-21.95-60.77-21.95-45.58 0-25.33 18.57-10.13 28.7-60.78 3.37-89.48-50.65-131.68-52.33 1.69 13.5 10.13 30.39 28.69 40.51-74.28 28.7-121.54-60.77-155.31-57.4 28.7 45.59-16.88 82.73-79.34 57.4 18.57-11.81 27.01-37.14 20.26-57.4-6.75-20.25-28.7-43.89-62.46-43.89-33.77-1.69-54.03 13.51-64.15 28.7M-40006.64 5883.39c3.37-10.13 20.26-33.76 28.7-40.51m-67.53-23.64c1.69-3.37 18.57-18.56 25.33-23.63m-3.39 52.33s15.2-23.64 23.64-28.7m-67.53-27.01c3.38-1.69 18.57-8.44 28.7-15.19m-48.95-15.19c10.13 0 27-3.38 37.14-8.45m-62.47-45.58c23.63 0 40.52 13.51 55.71 30.39m-42.2-5.06c13.51 0 33.76 5.06 43.89 13.5" class="fil3 str1"/><path d="M-40015.08 6286.86c3.37-5.07 10.13-15.19 16.88-21.94" class="fil3 str3"/><path d="M-39898.6 6453.99c-18.57-15.19-1.69-35.45 13.5-37.14 15.2 0 27.01 11.81 28.7 32.07 0 20.26-15.19 38.83-38.82 38.83-23.63 0-42.21-20.26-43.89-45.58" class="fil3 str1"/><path d="M-39876.65 6482.69c-45.59 33.76-91.17 0-109.73-27.01" class="fil3 str1"/><path d="M-39898.6 6526.58c-5.07 0-10.14 1.69-15.19 1.69-45.59-1.69-94.54-23.63-121.55-70.91-25.33-45.58-30.39-62.46-28.7-121.54 1.69-43.89-10.13-65.84-18.57-77.66-6.75-10.13-8.44-11.82 5.07-10.13 18.56 1.69 30.39 8.44 38.82 15.19 23.64 20.26 32.08 54.02 16.89 89.47 16.88-16.88 27-16.88 37.14-15.19M-39940.8 5849.63c-37.14 23.63-67.53 86.09-75.97 172.19-10.13 113.11-11.82 185.7-23.63 238.03M-40087.67 7259.24c15.19 28.7 21.94 106.35 15.19 160.37m25.32-373.08c0 84.41 69.22 109.73 60.78 261.66m-256.61 177.26-3.37 21.95 15.19-1.69m11.82-54.02-5.06 32.07 21.95-1.69m-59.09 25.33-6.75 13.51 11.81-3.38m227.9-305.56c-1.69 21.95-5.06 42.21-28.69 37.14m114.79-212.71c3.37 18.57 1.69 42.21-11.82 67.52-15.19 25.33-1.69-15.19-28.7-25.32m3.38-209.33c1.69 13.51-3.38 27.01-18.57 27.01 1.69 8.44-5.07 18.57 13.51 38.82" class="fil3 str1"/><path d="M-39989.76 6732.53c-28.7 8.44-47.27 1.69-59.08-6.75 32.07 20.26 8.44 43.89 33.76 67.53-18.56 1.69-25.32-8.45-28.7-11.82-6.75 45.58 40.52 42.21 33.77 91.16-11.82 1.69-20.26 1.69-30.39-13.5-16.88 77.65 69.21 104.66 75.96 163.75 5.07 45.58-21.94 33.76-28.7 18.57-6.75-13.51-3.37-32.08-3.37-43.89-32.08 15.19-33.77 5.06-33.77-21.95 0-28.7-16.88-47.27-42.2-50.65 13.5 67.52-23.64 101.29-23.64 162.06-1.69 79.34 47.27 87.78 45.59 118.17-1.69 25.33-23.64 32.08-23.64-33.76-11.81 3.37-23.63 13.51-28.7 21.95-5.06-8.44-21.94-11.82-32.07-15.19-6.75 16.88-11.82 37.14-10.13 65.84 1.69 27 20.26 48.95 33.76 64.14 13.51 16.89 25.33 59.09 8.44 59.09-30.39 1.69-1.69-45.58-32.07-92.85-20.26 35.45-38.83 60.77-35.45 106.35 1.69 23.64 8.44 69.22-16.88 79.35M-39984.69 6535.02c6.75 5.07 33.75 11.82 50.64 13.51m-52.33 13.5c11.81 6.76 38.83 10.13 38.83 10.13m-43.9 16.88c10.13 5.06 33.76 6.75 35.46 8.44m-45.59 16.88c10.14 5.07 27.01 5.07 37.14 6.75m-48.95 16.89c13.5 5.07 30.39 6.75 42.2 6.75m-59.09 16.88c13.51 5.07 42.21 6.75 54.03 5.07m-84.42 13.5c11.82 10.13 47.27 16.88 77.66 8.44M-40889.55 7922.68c20.26-20.26 55.71-75.96 67.53-101.29 11.81 0 18.56 11.82 48.95 11.82 32.08 0 40.52 6.75 52.34 11.81 119.85-153.62 232.96-160.37 373.08-273.48 65.84-54.02 55.71-101.29 81.03-145.18s69.21-32.07 89.47-48.96c-20.26 16.89-64.15 5.07-89.47 48.96" class="fil3 str1"/><path d="M-41657.83 5842.88v1132.75c.68 484.16 432.34 748.7 773.01 747.85 340.5-1.02 767.78-281.76 767.44-744.31V5843.04l-1540.45-.16z" style="fill:#000;fill-rule:nonzero"/><path d="M-40714.23 7184.34c6.04 5.25 9.38 9.13 14.03 16.34 77.66 4.96 87.91-12.9 99.79-16.34h-113.82zM-40918.83 7184.08c6.43 5.39 10.6 10.95 14.77 16.34 60.32 7.47 65.01-7.12 83.96-15.99l-98.73-.35zM-41149.85 7182.86l14.78 16.34c87.61 5.91 89.34-7.12 106.9-14.77l-121.68-1.57z" class="fil6"/><path d="M-40328.53 7165.85c11.82-14.03 18.45-22.08 30.03-41.55 5.93 18.88 9.56 24.97 1.47 47.49-8.19-2.9-15.21-4.91-31.49-5.99l-.01.05z" class="fil7"/><path d="m-40465.06 6940.18 20.71 14.62c-25.56 34.54-33.41 48.72-47.69 89.78l-12.66.59c2.26-15.65.05-28.26-4.51-41.11 14.87-25.31 29.39-46.6 44.15-63.88z" class="fil6"/><path d="m-41174.54 6979.03 35.82-97.62 93.7 107.92c-5 4.17-6.77 11.04-9.32 17.66-5.15-21.29-22.32-37.62-52.49-38.26-30.18-.64-52.59 13.98-57.89 34.34-2.26-16.24-6.38-17.17-9.82-24.04z" class="fil7"/><path d="M-41163.25 6850.51c-184.75-208.16-139.28-500.74-58.58-583.94l36.01-9.67c.88-25.8.49-30.95 9.38-32.67l50.67-9.81c-6.72 3.97-3.78 13.63-4.61 32.18l27.47-6.38c-81.92 123.13-70.55 360.18-9.81 473.41l-50.53 136.88z" class="fil6"/><path d="M-40433.27 6960.88c10.8 14.38 21.88 24.63 31.4 56.42 3.63-3.14 7.26-6.38 14.72-17.17l-46.12-39.25z" class="fil7"/><path d="M-40349.73 7169.48c-38.06 6.61-45.37 39.81-125.85 34.08.7 3.47.7 12.16.35 15.81 30.76 5.74 42.93 4.18 77.87-1.39-30.77 9.21-40.85 9.39-78.4 4.35-5.56 28.5-50.75 37.89-78.04 28.85-27.29-9.04-33.03-29.2-20.34-41.54 22.42-22.95 79.96-12.34 37.89 11.12 30.42-21.9-12.17-26.59-31.63-11.99-19.47 14.6-3.83 35.98 19.46 40.5 23.3 4.52 65.18-.17 70.58-30.77 5.39-30.59-37.37-57.71-84.48-47.8-46.94 9.91-39.81 41.2-136.63 32.16.87 3.13 1.56 12.52 1.56 15.82 16.17 3.47 54.24 8.34 79.62 2.95-20.17 11.65-71.62 2.26-81.18.52-5.21 32.68-54.06 35.12-77.36 27.12-21.38-7.99-36.5-23.29-21.72-39.63 14.59-16.34 72.83-10.09 40.15 14.95 21.9-22.95-20.86-26.6-36.16-13.39-15.47 13.21-1.04 31.12 29.2 36.67 30.07 5.57 57.02-3.3 62.93-27.64 7.47-30.59-41.2-58.58-87.44-47.8-46.24 10.78-31.29 40.15-114.38 30.94 1.4 6.78.53 11.3-.69 16.51 25.03 8.17 59.97 5.39 75.44-1.73-18.07 15.99-66.06 7.65-75.79 5.91-18.77 32.68-69.18 33.89-85 25.55-15.81-8.35-39.63-24.34-9.04-43.46 30.6-19.12 62.75 4.52 35.81 19.3 18.25-19.3-5.39-30.6-31.29-18.43-25.9 12.34-17.21 31.29 7.47 40.68 24.69 9.38 64.67.86 77.53-25.21s-29.03-59.27-78.57-51.45c-49.54 8-39.98 42.59-146.19 30.42 1.04 3.48 2.43 13.22 1.39 18.77 25.04 5.22 57.02 2.79 76.14-1.04-20.16 10.95-60.66 7.83-76.83 5.04-11.3 37.03-58.58 35.98-80.66 28.34-21.38-7.99-35.63-25.73-16.68-43.8 18.95-18.26 79.09-10.95 41.89 12.17 27.82-20.86-18.6-27.99-39.8-8.69-21.21 19.29 5.73 37.37 29.37 41.02 23.64 3.65 57.54-5.39 62.58-33.02 5.21-27.47-26.42-44.68-49.72-49.54-27.98-5.91-50.92 6.26-77.35 21.21-28.16 15.81-69.01 14.08-111.08 6.78 2.26 6.6 2.78 11.47 3.31 18.6 26.59 9.56 72.31 7.13 82.04 5.21-21.21 7.65-62.75 4.7-82.22-1.56 0 0-4.69 10.95-6.43 13.38-13.73 18.6-48.67 30.08-75.96 17.56-17.56-7.99-36.68-23.64-16.52-44.15 20.17-20.51 88.48-7.82 40.51 16.86 41.54-26.42-22.95-32.68-40.33-13.21-17.38 19.65 11.3 38.07 33.37 41.72 21.91 3.48 58.75-8.86 61.36-34.76 2.26-22.43-12.86-43.29-62.92-49.2-50.06-5.91-60.32 38.25-173.83 31.81l7.13 20.86c25.9 5.22 58.58 1.57 74.92-3.3-17.04 12.69-62.23 8.86-73.19 6.78 9.74 28.34 36.68 84.48 50.41 106.21 66.58 3.3 94.39 10.25 140.46-23.12 46.06-33.55 95.77-17.73 110.72 20.52 54.06 7.82 80.49 5.04 141.32-27.64 60.84-32.69 107.95-16.35 121.86 23.63 41.72 3.48 80.65 3.48 124.63-26.24 43.98-29.73 114.21-12.7 120.47 22.42 70.05 6.43 70.05.86 120.98-25.21 50.93-26.07 114.9-17.38 122.03 22.95 68.84 9.91 104.81-25.03 140.28-34.94 35.46-9.91 88.47 5.39 100.3 39.28 50.06 3.65 82.22-3.47 102.9-17.38 15.99-29.72 41.89-81.18 55.1-135.06-45.19 20.51-74.22 26.25-116.64 25.03 5.21 6.96 5.39 24.16 2.96 22.25 0 0 32.33 4 77.17-1.22-26.07 10.08-77.17 4.35-77.17 4.35-2.96 31.29-60.67 36.67-81.35 29.37-20.86-7.3-46.59-23.81-13.56-45.37 33.02-21.55 76.83 6.09 36.15 16.69 34.42-14.26-5.56-31.64-33.89-13.04-28.34 18.6-8 28.85 6.08 36.5 14.08 7.65 77.88 11.13 83.61-26.42 5.74-37.55-42.93-56.32-81-49.71l.01.33zm44.85 275.34c27.82-29.03 71.44-91.25 96.48-134.02-32.51 17.74-65.71 17.74-101.35 16.34.53 7.13-1.73 14.09-5.21 20.86 26.77 6.96 64.14 2.78 82.57-3.65-18.25 12.69-66.06 12.52-85.52 8-22.42 27.64-57.89 25.55-78.92 19.99-21.04-5.57-41.9-24.86-22.95-47.46s84.14-23.99 48.67 17.03c28.51-39.28-28.5-34.07-46.23-15.47-17.74 18.6.69 34.25 13.9 40.68 13.22 6.43 66.23 12.34 86.92-22.08 20.68-34.41-36.33-64.49-80.31-59.8-43.98 4.87-66.58 45.89-153.49 36.86 1.56 6.08-3.48 21.38-7.13 22.94 26.42 1.74 52.67 3.82 87.44-4.87-30.77 13.39-71.27 8.69-89.17 7.83-19.99 30.07-63.1 34.76-85.7 25.2-22.6-9.74-26.59-23.99-13.91-42.76 12.69-18.77 83.27-33.38 50.24 8.69 24.16-39.29-33.72-24.17-46.77-9.04-12.86 14.94-13.73 30.93 13.04 40.67 23.81 8.69 59.97 6.26 81.18-25.03 28.51-42.24-28.68-77.01-93.35-53.37-64.66 23.64-49.19 42.42-138.36 31.82 1.21 8.52-.18 14.25-2.44 22.42 26.25 7.3 52.15 4.69 78.23-.53-30.42 9.39-44.33 10.09-80.48 3.65-21.38 35.81-85 26.95-100.82 18.95-15.82-8.16-27.29-12.16-9.74-32.33 17.38-20.16 88.14-31.11 63.1 4.52 15.65-34.76-47.8-17.56-58.57-5.21-10.61 12.34-18.08 18.43 9.38 32.16 9.56 4.69 78.74 18.6 96.3-25.38 17.56-43.98-58.58-71.45-105.86-45.38-47.28 26.08-45.37 34.25-133.32 31.47 1.56 4.51 1.39 13.91-.35 20.51 38.42 7.82 57.19 1.73 81.53-2.61-15.99 8.69-54.76 14.25-82.57 6.43-19.12 39.46-97 30.77-106.56.01-9.55-30.59 78.74-60.49 66.06-10.95 7.82-41.19-71.79-20.68-62.06 10.78 9.74 31.29 89.87 32.68 100.65-2.95 10.78-35.64-36.16-85-106.55-51.28-70.41 33.72-84.48 44.67-153.49 33.2 1.73 5.91 2.26 14.6.87 20.51 29.72 5.74 49.88 6.26 84.47 4.18-16.34 5.73-46.06 4.69-86.22-1.22-19.99 39.28-89 29.37-99.95 9.38-10.94-19.99-.69-27.81 12.34-36.85 13.04-9.04 60.67-16.34 49.2 15.65 5.56-27.99-38.07-20.86-50.76-9.74-12.69 11.13-17.21 20.86-5.73 31.63 24.85 23.47 82.04 17.91 93.34-14.77 11.3-32.68-47.46-79.44-100.3-43.63-53.01 35.8-64.49 33.02-148.27 28.15l12.16 18.6c29.9 5.91 51.11 5.91 74.58 2.26-17.73 6.43-45.19 6.78-72.14 2.09 15.65 25.9 56.49 76.48 88.65 112.64 69.88 4.87 74.92-23.12 115.07-33.03 40.33-9.91 72.31 10.95 81.52 30.94 86.22 13.56 105.52-26.25 142.19-31.46 36.68-5.39 70.23 8.69 84.48 33.72 69.01 9.91 77-25.03 118.03-33.2 41.03-8.17 73.36 15.81 80.48 31.98 84.83 12 95.96-22.07 131.77-30.94 35.8-8.86 73.18 1.57 89.17 32.16 72.14 7.13 81.35-24.69 118.03-33.38 36.68-8.69 70.92 5.22 86.22 27.12 36.5 0 65.36-5.04 96.65-19.47l-.36-.16z" class="fil6"/><path d="M-40505.4 7048.06c60.09 0 98.21-9.81 123.03-49.05 24.82-39.24 21.04-191.16 40.47-233.59 19.43-42.48 51.99-66.37 83.98-66.81 31.98-.49 59.6 21.38 61.31 53.96 1.72 32.57-23.35 57.24-53.96 55.82-30.6-1.42-42.92-22.27-42.92-40.47s15.75-31.39 30.02-33.75c39.44-6.18 38.27 44 12.85 39.25-19.76-4.86-11.67-26.39-11.67-26.39-12.27 6.13-4.66 35.22 13.48 33.74 18.16-1.47 24.14-18.34 22.67-30.01-1.43-11.68-15.31-26.59-35.57-23.31-20.25 3.29-42.72 19.18-38.01 56.41 4.71 37.23 30.85 97.13 31.29 166.79.44 69.65 2.45 141.67-63.17 215.25-57.84-1.13-55.44 42.38-145.3 34.92-1.22-6.27-3.97-9.52-9.81-15.3 88.44 2.59 150.84-41.06 172.28-108.51 21.48-67.45 17.26-117.68-10.41-176.6-11.18 135.84-68.43 173.51-189.34 178.07 3.73-9.32 8.39-21.68 8.73-30.31l.05-.11z" class="fil6"/><path d="M-40514.58 7081.81c73.39-4.56 173.02-5.1 192.3-163.74 53.71 114.44-53.32 198.32-209.86 196.61l17.56-32.87z" class="fil6"/><path d="m-40534.54 7117.96-23.54 34.34c214.81 6.92 260.37-94.33 253.02-174.73.39 67.85-74.96 144.32-229.47 140.4l-.01-.01zM-40296.38 7122.48c5.25-9.96 8.63-16.63 11.72-24.43 13.04 26.29 18.19 35.07 42.33 39.54l24.87 38.65c4.47 8.34 2.5 9.91.59 13.44-19.53 3-38.46 4.37-53.37 2.65-6.33-7.41-11.72-12.26-24.19-19.87 8.2-21.14 5.59-30.27-2.06-49.94l.11-.04zM-40456.55 6975.7l14.72-20.21c13.19 10.69 32.57 43.02 37.37 64.02-6.72 6.47-13.48 9.46-25.75 15.1-3.83-18.64-10.35-35.02-26.39-58.86l.05-.05zM-41492.22 6660.54c-36.55-14.77-51.21-82.36 4.9-76.04 56.12 6.33 57.3 48.22 78.49 66.22 21.19 18.01 79.07-7.94 79.07-7.94 4.71 13.74 4.27 23.64 2.45 32.48-16.77 10.89-44.54 18.49-70.54 21.48-24.82-11.92-47.39-51.41-68.09-51.51-20.65-.1-26.39 15.31-26.39 15.31h.11z" class="fil6"/><path d="M-41419.28 6566.11c-28.5.09-26.99 29.43-26.99 29.43 24.53 23.3 28.85 45.52 40.47 53.37 11.63 7.85 30.02 6.77 74.82-9.81 0 0-4.13-14.91-3.69-25.12.44-10.25 10.26-36.69-5.49-41.11-15.75-4.36-15.8 15.8-28.85 8.59-13.04-7.21-21.78-15.41-50.27-15.31v-.04zm18.84 22.66c8.19 0 14.86 7.06 14.86 15.94 0 8.88-6.67 16.09-14.86 16.09s-14.87-7.21-14.87-16.09c0-8.88 6.68-15.94 14.87-15.94zM-41442.53 6661.76c13.88 14.23 13.48 16.24 37.37 34.34-29.63-9.52-54.54 3.58-71.71-20.84 25.8-3.39 30.02-7.32 34.34-13.49v-.01zM-41424.78 6782.58c14.47-29.73 21.54-52.34 28.21-82.17 18.49-4.21 23.54-.58 68.67-19.62 7.76 45.04-2.01 94.24-11.03 116.5-4.71-4.51-11.24-5.05-15.95-6.37 4.47-50.67-4.12-72.41-11.04-86.83-7.46 38.66-11.09 50.28-24.92 79.08-7.31-1.18-28.01-5.4-33.94-.59z" class="fil6"/><path d="M-41386.76 6783.75c10.6-21.73 16.59-31.05 21.49-71.71 0 0 12.26 30.02 6.77 77.26-12.56-2.65-20.55-4.47-28.21-5.49l-.05-.06zM-41389.14 6604.65c0 6.6-4.93 11.96-11.03 11.96s-11.04-5.36-11.04-11.96c0-6.61 4.94-11.97 11.04-11.97 6.1 0 11.03 5.36 11.03 11.97zM-41418.19 6784.21c22.57-.17 58.57 8.61 70.42 11.39 5.58 1.32 8.25 5.59 6.86 14.17l-5.06 32.51c-.81 5.69-9.02 11.99-14.84 11.86-38.69-1.7-73.11-3.42-79.73-10.1-4.14-4.04-.78-16.13 1.01-21.44l10.04-28.29c2.01-5.44 5.23-9.93 11.09-9.97l.21-.13zM-41373.22 6857.47c13.79-.24 15.9 2.01 23.3-3.68-12.6 63.14 5.7 142.17 71.73 157.57 0 0 .09 21.34 5 37.28-120.2-40.91-114.45-135.2-100.08-191.23l.05.06z" class="fil6"/><path d="m-41414.33 6853.84 36.79 3.68c-27.62 119.41 34.2 172.69 104.74 195.64 5.55 12.32 9.62 21.93 18.25 40.47-37.58-8.53-193.63-77.02-159.83-239.79h.05z" class="fil6"/><path d="M-41422.86 6882.64c-10.75 116.75 90.85 195.05 171.31 215.86l25.75 37.67c-68.68-14.08-188.09-61.81-226.55-181.12 5.6-24.67 18.74-48.71 29.44-72.36l.05-.05z" class="fil6"/><path d="M-41454.75 6960.49c-5.55 13.05-10.99 25.36-15.95 53.97 25.27 61.37 113.38 133.14 229.35 162.28 31.64-14.86 56.07-15.16 88.89 3.34l126.33 1.86c35.91-18.68 68.09-21.73 105.23 0h102.63c32.87-19.67 73.09-19.17 101.64 0h118.14c26.73-13.53 65.15-29.77 109.74.94 40.96.39 158.95-2.65 181.91-146.79-15.95 54.56-62.8 123.38-251.08 119.11-58.92-.49-194.71-2.6-332.12-4.56-119.21-1.71-243.13-4.96-331.73-10.54-97.58-15.95-200.26-79.63-232.98-179.61z" class="fil6"/><path d="M-41472.65 7020.51c-2.26 16.69-5.21 36.33-2.43 54.76 26.08 42.59 78.04 92.82 177.31 122.72 20.51.7 37.19-11.82 49.71-18.43-81-25.2-175.22-67.09-224.41-158.87l-.18-.18z" class="fil6"/><path d="M-41476.24 7080.09c45.32 66.58 108.22 97.58 172.29 120.79-31.84.93-37.82 1.32-71.72-5.5-11.83-13.24-26-27.08-62.4-29.04-27.67-31.3-32.58-53.23-38.17-86.25z" class="fil6"/><path d="M-41443.77 6843.39c-.29 5.99 10.4 9.18 26.4 10.31l-4.91 21.83c-69.22 130-74.66 235.87-20.01 289.84-23.7.98-29.87 3.68-40.72 7.95-34.34-53.97-44.25-105.38-28.85-171.71 15.46-66.32 47.2-112.24 68.09-158.2v-.02zM-41219.08 6966.68c-65.1.49-80.9 68.29-.59 171.11 79.28-100.37 65.69-171.55.59-171.11zm.3 36.78c8.77 0 15.94 7.17 15.94 15.95s-7.17 15.94-15.94 15.94c-8.78 0-15.95-7.16-15.95-15.94s7.17-15.95 15.95-15.95z" class="fil6"/><path d="M-41206.43 7019.4c.01 6.78-5.48 12.27-12.25 12.27-6.78 0-12.27-5.49-12.27-12.27 0-6.78 5.49-12.28 12.27-12.28 6.77 0 12.26 5.5 12.26 12.28h-.01zM-41109.52 6971.52c-65.1.49-80.9 68.29-.59 171.11 79.28-100.37 65.69-171.55.59-171.11zm.29 36.79c8.78 0 15.95 7.17 15.95 15.95s-7.17 15.94-15.95 15.94-15.94-7.16-15.94-15.94 7.16-15.95 15.94-15.95z" class="fil6"/><path d="M-41096.87 7024.25c.01 6.77-5.48 12.27-12.25 12.27s-12.27-5.5-12.27-12.27c0-6.79 5.5-12.28 12.27-12.28s12.26 5.49 12.26 12.28h-.01zM-40999.43 6974.92c-65.1.49-80.9 68.29-.59 171.12 79.28-100.37 65.69-171.56.59-171.12zm.29 36.79c8.78 0 15.95 7.17 15.95 15.95s-7.17 15.94-15.95 15.94-15.94-7.16-15.94-15.94 7.16-15.95 15.94-15.95z" class="fil6"/><path d="M-40986.78 7027.65c.01 6.77-5.49 12.27-12.26 12.27s-12.26-5.5-12.26-12.27c0-6.79 5.49-12.29 12.26-12.29s12.27 5.5 12.27 12.29h-.01zM-40889.86 6978.02c-65.1.49-80.9 68.29-.59 171.12 79.28-100.37 65.69-171.56.59-171.12zm.29 36.8c8.78 0 15.95 7.16 15.95 15.94s-7.17 15.95-15.95 15.95-15.94-7.17-15.94-15.95 7.16-15.94 15.94-15.94z" class="fil6"/><path d="M-40877.21 7030.75c0 6.77-5.49 12.27-12.26 12.27s-12.26-5.5-12.26-12.27c0-6.78 5.49-12.28 12.26-12.28s12.26 5.5 12.26 12.28zM-40560.93 6979.86c-65.1.49-80.9 68.29-.59 171.11 79.28-100.37 65.69-171.55.59-171.11zm.29 36.79c8.78 0 15.95 7.17 15.95 15.95s-7.17 15.94-15.95 15.94-15.94-7.16-15.94-15.94 7.16-15.95 15.94-15.95z" class="fil6"/><path d="M-40548.27 7032.59c-.01 6.77-5.5 12.27-12.27 12.27s-12.26-5.5-12.26-12.27c0-6.79 5.49-12.29 12.26-12.29s12.26 5.5 12.26 12.29h.01zM-40780.34 6978.51c-65.1.49-80.9 68.29-.59 171.12 79.28-100.37 65.69-171.56.59-171.12zm.29 36.8c8.78 0 15.95 7.16 15.95 15.94s-7.17 15.95-15.95 15.95-15.94-7.17-15.94-15.95 7.16-15.94 15.94-15.94z" class="fil6"/><path d="M-40767.69 7031.24c0 6.77-5.49 12.27-12.26 12.27s-12.26-5.5-12.26-12.28c0-6.77 5.49-12.27 12.26-12.27s12.26 5.5 12.26 12.27v.01zM-40670.69 6978.63c-65.1.49-80.9 68.29-.59 171.12 79.28-100.37 65.69-171.56.59-171.12zm.29 36.8c8.78 0 15.95 7.16 15.95 15.94s-7.17 15.95-15.95 15.95-15.94-7.17-15.94-15.95 7.16-15.94 15.94-15.94z" class="fil6"/><path d="M-40658.04 7031.36c0 6.78-5.49 12.28-12.27 12.28-6.77 0-12.26-5.5-12.26-12.28 0-6.78 5.49-12.28 12.26-12.28 6.78 0 12.27 5.5 12.27 12.28zM-41194.16 7107.66l-19.62 28.85c12.31 2.45 70.94 4.51 98.12 5.15l-20.71-30.91-57.79-3.09zM-41175.76 7075.78l-15.95 28.85 52.11 1.86-16.59-30.03zM-41165.32 7042.76c-1.74 9.22-4 18.6-8.52 29.38l15.99.69c-3.65-7.82-5.39-19.12-7.3-30.07h-.17zM-41083.62 7111.94l-20.86 30.08 99.43 3.3-20.69-30.94zM-41065.55 7079.96l-15.99 28.85 53.37 2.43-15.99-30.07zM-41055.11 7044.15c-1.74 14.6-4.7 21.73-9.39 32.68l19.12 1.04c-3.65-7.82-5.91-14.95-9.73-33.72zM-40973.24 7114.73l-20.86 30.07 98.04 2.08-22.6-30.24zM-40956.38 7084.48l-15.3 27.64 52.15 1.56-14.78-29.2zM-40945.95 7049.02c-1.74 14.6-4.7 21.73-9.39 32.68l19.13.17c-3.65-7.82-5.91-13.91-9.74-32.68v-.17zM-40645.92 7120.29l-20.69 30.07 101.86 2.09-23.46-33.38zM-40735.62 7084.83l-17.73 31.81h55.28l-18.43-31.81zM-40605.6 7085.52l15.29 30.6-53.19.69 16.34-31.29zM-40846.52 7085.52l-14.78 30.25 52.67.69-16.51-31.46zM-40836.09 7049.54c-1.74 14.6-4.7 21.72-9.39 32.68l19.12.17c-3.65-7.82-5.9-13.91-9.73-32.68v-.17zM-40726.23 7049.54c-1.74 14.6-4.7 21.72-9.39 32.68l19.12.17c-3.65-7.82-5.91-13.91-9.73-32.68v-.17zM-40616.55 7050.06c-1.73 14.6-4.69 21.73-9.38 32.68l19.12.17c-3.65-7.82-5.91-13.91-9.74-32.68v-.17zM-40863.38 7117.85l-20.86 30.07 98.04.87-21.03-29.03zM-40754.91 7119.6l-20.86 30.07 100.64 1.39-21.9-30.94zM-41091.14 6750.82l-47.09 128.14 28.94 31.4 96.64-51.51c-22.07-21.54-65.44-71.43-78.49-108.03zM-41106.83 6912.81l17.66-9.82 62.6 74.08c-5.6 2.01-9.62 3.92-16.48 9.81l-63.78-74.07zM-41203.48 6964.81c11.43 3.39 18.65 6.13 25.51 11.77l303.18-819.75-26.49 4.9-302.2 803.08zM-41079.97 6898.66l18.25-9.91 137.85 83.44-1.92 11.3c-4 3.65-2.09 1.56-7.3 7.82l-146.88-92.65zM-40917.47 6952.05l-5.4 30.91c22.62-11.53 46.07-11.63 70.16 1.96l-3.93-32.87h-60.83zM-40917.47 6949.11l2.94-24.04 55.44-.49 1.96 24.52zM-40913.05 6895.64l-1.48 26.98 55.44-.49-1.97-26.99zM-40913.05 6893.19l.98-43.17 50.53-.5.49 43.67zM-41183.86 6225.5s-5.4 1.97-4.9 29.44l-39.74 10.3c-23.79 5.74-20.6-10.1-20.11-18.15-.64-11.24 17.75-12.26 64.75-21.59zM-41075.44 6231.39c1.48-23.05-.98-25.5 7.85-29.92l-53.47 11.77c-9.18 5.55-6.13 19.03-6.87 29.43l52.49-11.28z" class="fil6"/><path d="M-41062.68 6200.98c-13.2 3.19-7.5 21.09-10.31 32.38l-26 6.38c-79.91 117.74-73.98 353.76-11.77 469.48l89.78-236.95c-.83-92.81 14.27-155.36 73.1-264.42l-73.59 15.7c0-25.02-3.43-26.99 4.91-31.89l-46.12 9.32zM-41089.22 6746.5l74.62-203.15c15.79 113.33 55.33 206.93 128.53 303.23-46.95 1.43-88.16 4.96-124.61 10.31-35.71-38.12-57.69-66.67-78.54-110.38v-.01z" class="fil6"/><path d="M-40966.46 6209.09c1.39-23.12-1.04-25.56 7.82-29.9l-53.54 11.82c-9.21 5.57-6.09 19.12-6.95 29.38l52.67-11.3z" class="fil6"/><path d="m-40943 6203.87-20.51 4.87c-.52-25.56 2.43-29.03 12.34-31.46l44.68-9.74-111.78 298.81c.18-122.55 37.9-187.91 75.45-262.48h-.18zM-40832.79 6178.14c1.39-23.11-1.04-25.03 7.82-29.37l-48.15 11.3-10.78 29.37 51.11-11.3z" class="fil6"/><path d="M-40819.41 6147.9c-13.21 3.13-7.47 21.04-10.25 32.33l-54.93 12.34-127.76 343.83c7.99 77.7 42.76 200.42 130.2 310.63 39.45 0 79.43.34 126.55 5.39-178.71-300.72-126.04-467.42-.01-686.27l-22.6 4.34c0-25.03-3.48-26.94 4.87-31.81l-46.07 9.22z" class="fil6"/><path d="M-40715.11 6155.89c1.39-23.11-1.04-27.46 7.83-31.81l-58.93 13.22c-13.04 5.56-9.56 10.77-8.87 29.89l59.97-11.3z" class="fil6"/><path d="M-40701.38 6122.35c-13.21 3.12-7.99 23.99-10.77 35.28l-36.86 7.3c-234.32 355.82-53.53 583.71-4 687.31 47.81 5.22 99.08 13.22 162.36 30.25-232.06-319.84-85.87-591.71 16.34-754.41l-85.87 16.87c0-25.03-3.48-27.47 4.87-32.33l-46.07 9.73z" class="fil6"/><path d="M-40573.26 6124.43c1.39-23.11.17-28.33 9.04-32.68l-82.92 18.6c-13.03 5.56-11.12 11.65-10.25 30.94l84.13-16.86z" class="fil6"/><path d="m-40492.26 6073.33-62.58 16.34c-15.48 2.78-15.12 16.68-15.12 37.54-274.13 408.84-76.84 662.46-16.17 757.55 91.95 24.16 154.7 71.79 200.42 113.5 4.52-5.9 7.13-13.38 9.56-21.38-276.39-367.99-148.28-719.29 34.94-908.42-9.74 5.39-16.17-22.07-3.65-31.29l-71.62 17.91c-10.95 3.3-9.73 14.95-9.91 36.5l-72.48 15.82c.34-25.38-.87-28.86 6.95-34.25l-.34.18z" class="fil6"/><path d="M-40340.34 6035.78c-10.43 6.6-13.03 28.85-.69 31.81l61.36-13.04c13.91-4.51 14.43-31.63-8.16-31.63l-52.51 12.86zM-40428.99 6089.84c1.04-19.3-2.26-28.68 6.26-32.68l-60.84 14.08c-13.03 3.48-13.73 13.56-12.86 32.85l67.44-14.25z" class="fil6"/><path d="M-41486.44 7174.18c-33.45 17.41-63.18 26.98-126.02 24.87-17.31-52.49-32.37-137.4-35.51-215.49V5853.6h1520.67l.79 1127.75c.73 60.63-11.24 133.77-24.82 186.31-25.31 11.53-33.65 14.87-63.33 22.52 9.82-8.74-11.82-29.88-25.51-55.24-27.96-3.78-34.73-23.94-42.72-39.93 51.7-159.08-22.66-297.31-14.42-322.82 13.05 50.03 70.29 46.55 92.96 15.45 22.66-31.1 5.15-75.35-26.79-87.56-31.98-12.17-86.48.35-110.96 59.6-22.66 54.84-10.75 93.54-33.65 213.39-56.02-78.49-157.27-223.79-157.76-441.49-.49-217.7 122.34-388.66 194.45-461.11l54.01-12.27c26.68-3.09 22.46-35.91-.99-39.59-224.17 56.51-389.19 97.08-583 136.62 9.27-7.6 13.14-10.11 19.47-25.71l36.15-.78-.09-185.72c-35.57 16.13-56.61 43.56-50.82 114.1 13.19 3.28 18.69 6.72 10.05 18.1-8.63 11.38-21.93-10.69-22.81-61.27-.88-50.58 10.65-71.86-9.76-84.72-20.8 12.81-9.27 24.18-10.2 84.08-.93 59.85-15.6 73.48-23.16 61.86-7.55-11.63-.93-15.89 11.14-17.76-1.37-40.76-2.75-96.29-52.25-114.14l.3 185.52 36.11.15c4.16 11.62 8.63 19.23 20.16 29.48l-2.21 6.08-336.76 70.4c-13.78 4.02-10.55 38.06 4.07 34.43l12.17-1.66c-27.92 28.06-57.44 97.42-65.83 177.03-8.44 79.62-6.97 251.65 127.73 407.84l-41.06 111.06s-24.67-4.02-45.52 7.06c-20.9 11.09-25.17 36.4-25.17 36.4-72.35-13.1-79.66-103.45-70.14-154.76 7.06-16.14 8.34-35.17 9.42-51.66 12.16-33.3 20.8-68.52 12.5-120.47 8.88-38.46-12.85-43.41-4.07-79.91 8.24-34.24-19.23-37.63-28.21-24.38-8.97 13.25-14.56-11.09-51.6-12.85-36.99-1.77-39.69 18.89-39.34 30.86 0 0-33.02-18.35-58.77-11.24-25.7 7.16-33.26 52.59 16.19 81.28 3.73-9.47 24.97-29.38 46.16-4.07-9.07 10.15-12.02 10.25-36.74 13.25 15.11 28.45 47.88 15.65 81.43 27.17-1.62 32.28-51.85 129.6-44.2 137.64-26.68 66.92-131.27 193.87-41.84 336.32l.1-.06z" class="fil7"/><path d="m-41058.83 6887.16 49.54-26.49c15.16-6.13 57.64-7.41 93.69-9.81 1.33 61.56-3.09 90.21-7.36 118.22l-135.87-81.92zM-41086.79 6901.88l3.43-1.96 146.67 92.71s-3.92 5.89-7.84 15.7c-7.36-27.96-33.56-37.09-52-37.28-18.44-.2-27.47 4.41-27.47 4.41l-62.79-73.58zM-40859.62 6850.08c.09 56.56 4.8 96.49 9.46 136.66 4.86 7.41 9.08 7.51 14.72 24.87 5.25-17.17 22.22-36.2 54.98-36.44 32.77-.24 49.75 19.57 54.31 37.77 7.7-24.18 30.61-37.72 56.41-37.43 25.8.3 47.63 14.77 53.27 37.92 7.01-23.84 31.29-36.25 57.1-36.74 25.85-.49 41.69 13.2 48.02 24.38 12.02-20.06 27.77-41.06 43.47-62-133.43-84.52-339.16-89.13-391.75-88.98l.01-.01zM-40489.27 7044.18c7.85-24.72 18.65-46.5 31.21-66.56 8.09 14.32 15.2 20.45 25.94 57.44-22.51 7.65-40.12 8.78-57.09 9.12h-.06z" class="fil7"/><path d="M-40922.98 6126.31h-36.29v-179.78c46.08 15.19 48.28 77.65 48.78 109.73-23.47 2.19-14.35 22.45-3.88 24.98 10.46 2.54 19.24-30.55 19.58-64.15.16-21.77-.51-43.04-1.69-55.2-1.18-12.15-2.54-21.78 9.96-29.71 11.81 7.26 10.97 21.61 9.79 29.88-1.18 8.27-1.69 16.37-1.69 55.03s12.32 67.18 21.61 63.13c9.28-4.05 16.21-22.62-5.57-24.47-5.07-57.06 9.46-93.87 47.78-109.4v180.47h-35.96c-5.07 13.84-12.16 20.59-20.26 27.35l-30.05 4.39c-9.44-7.09-18.73-18.74-22.11-32.25zm31.07-.01h-14.69c1.02 9.62 8.78 16.04 15.03 21.1l-.34-21.1zm26.67.17-15.36-.17.34 21.27c7.42-6.58 12.83-13.84 15.02-21.1zm-57.56-15.36c-.34-7.43 3.54-15.7 3.54-15.7-16.2-.51-19.41-12.83-24.14-25.49v41.36l20.6-.17zm93.18.5.17-39.67c-5.23 11.99-12.49 20.6-24.31 23.13 1.86 6.25 2.19 10.8 2.87 16.54h21.27zm-61.95-1.01c-1.02-8.61-4.89-13.17-12.32-14.85-2.87 5.06-4.39 10.29-4.22 15.19l16.54-.34zm23.8-14.85c-7.77.5-12.32 8.78-12.83 15.53h16.37c.5-4.56-1.18-9.96-3.55-15.53h.01zm-7.93-15.35c-4.39-6.41-7.43-12.66-11.48-24.14-2.7 10.97-5.91 17.89-10.13 24.47 4.89 4.39 8.1 9.62 11.14 14.86 3.03-5.24 6.58-11.65 10.63-15.2l-.16.01zm-50.14-36.8c-.17-15.19-6.25-50.48-17.9-68.04v85.43c7.09-10.81 10.47-12.84 17.9-17.39zm96.05-68.2c-17.22 26.16-18.23 50.14-17.05 66.85 7.09 5.57 13 11.48 17.05 19.42v-86.27zM-40481.35 7439.54c-45.07 8.78-44.4 39.84-123.41 34.1.68 3.55.68 12.32.34 15.87 30.22 5.74 42.04 4.21 76.48-1.36-30.22 9.12-40.02 9.46-76.82 4.22-5.57 28.53-50.65 38.83-77.48 29.72-26.84-9.12-32.41-30.06-19.92-42.55 21.95-22.96 84.07-7.6 38.15 11.14 35.96-18.74-12.83-27.52-31.9-12.83-19.08 14.69-6.76 36.97 19.92 42.37 26.67 5.23 63.98-1.18 69.21-31.73 5.23-30.56-36.63-57.74-82.72-47.78-46.09 9.96-40.01 41.19-134.88 32.25.84 3.21 2.02 12.49 1.85 15.86 15.87 3.55 53.69 8.45 78.5 3.04-19.92 11.65-68.88 1.69-78.33 0-5.07 32.58-54.36 36.63-77.32 28.53-20.93-8.1-36.63-24.31-22.29-40.52 14.35-16.2 72.43-9.96 40.35 15.03 24.65-23.81-21.77-27.18-36.97-14.01-15.02 13.17.51 33.09 30.06 38.66 29.54 5.57 61.11-4.22 63.64-29.04 3.04-31.06-44.06-61.96-87.44-47.78-43.39 14.01-41.02 39.17-112.27 30.9 1.36 6.75.51 11.31-.84 16.54 24.48 8.1 58.92 5.4 74.11-1.69-17.72 16.04-64.83 7.6-74.45 5.91-18.4 32.75-67.86 34.77-83.39 26.5-15.53-8.27-39.84-25.32-9.79-44.4 30.05-19.08 74.11-5.91 43.72 14.52 20.26-20.1-13.84-25.83-39.16-13.68-25.49 12.32-15.87 31.4 8.27 40.68 24.31 9.29 64.82.85 77.48-25.15 12.66-26.16-29.88-60.27-78.33-52.33-48.62 7.94-47.94 43.55-143.32 31.4 1.01 3.55 2.53 13.17 1.35 18.74 24.47 5.23 55.88 2.7 74.62-1.18-19.76 10.97-59.42 7.76-75.29 5.06-11.14 36.97-57.57 35.96-79.01 28.37-20.93-8.11-34.95-25.67-16.37-43.9 18.74-18.23 77.48-10.97 41.02 12.16 24.98-19.24-17.9-28.53-38.5-9.28-20.76 19.24 5.24 38.82 28.37 42.37 23.29 3.55 59.42-5.41 62.63-34.95 3.2-29.54-34.61-56.55-74.45-49.8s-49.63 38.32-119.53 33.93l19.76 19.59c14.18-.17 26.16-1.18 39.84-2.88-8.11 4.06-23.47 6.25-37.14 5.91 48.28 43.05 89.81 76.48 147.21 107.88 80.52 9.11 96.22-14.69 134.04-31.06 37.81-16.21 79.85 5.57 94.36 30.21 94.71 16.71 104.5-25.66 143.84-32.75 39.33-7.09 73.94 4.22 90.65 35.96 73.77 12.66 86.94-35.28 132.35-37.64 45.58-2.36 64.66 21.1 74.78 36.13 99.78 13.67 99.78-36.63 159.37-36.97 32.25-23.97 60.27-43.56 93.86-75.13-23.13 6.08-44.4-.33-44.4-.33-8.44 31.73-61.28 37.14-81.71 29.71-20.42-7.26-45.75-24.81-13.33-46.26 32.41-21.61 75.46 6.08 35.45 16.71 33.76-14.18-6.42-32.58-34.11-14.01-27.68 18.57-6.92 30.39 6.93 37.98 13.84 7.6 70.9 10.64 82.55-22.95 11.47-33.77-34.95-62.47-80.02-53.52l-.17-.49z" class="fil8"/><path d="M-40551.07 7630.63c-26.34 1.18-37.82.17-51.66-1.86-5.23 35.79-56.38 39.17-80.02 30.22-21.77-8.78-36.96-25.49-22.11-43.39 14.85-17.89 74.11-10.97 40.85 16.38 25.67-26-22.61-29.72-38.32-15.37-15.7 14.52.51 36.3 31.06 42.37 30.72 6.08 63.31-4.55 66.01-31.9 3.21-34.11-45.75-67.87-90.83-52.51-45.07 15.53-42.54 42.88-116.31 33.93 1.35 7.43 1.35 11.65.67 18.07 20.26 7.08 46.6 7.26 75.29-1.86-22.95 16.2-63.47 9.96-76.64 6.58-19.08 35.79-70.73 37.14-86.94 28.03-16.2-9.12-40.35-26.67-9.12-47.61 31.24-20.93 63.81 4.9 36.47 21.1 20.93-22.11-6.41-33.59-32.75-20.09-26.34 13.51-16.55 34.27 8.6 44.57 25.16 10.3 67.19 1.01 80.36-27.69 13.17-28.7-30.89-66.18-81.37-57.4-50.31 8.78-40.52 47.78-148.56 34.27 1.02 3.72 2.54 14.35 1.36 20.6 25.32 5.74 57.9 3.04 77.32-1.18-20.43 11.99-61.62 8.44-78.17 5.57-11.47 40.51-59.59 39.33-81.87 31.06-21.78-8.78-36.3-28.2-16.88-48.12 19.41-19.92 80.35-11.98 42.54 13.34 28.36-22.96-19.92-31.23-41.53-10.13-21.44 21.1 6.93 42.54 30.9 46.42 24.14 3.89 59.93-5.91 65.16-36.12 5.23-30.22-28.36-50.98-51.99-56.39-28.53-6.41-52.67 8.61-78.67 22.79-22.8 12.32-59.09 16.37-93.19 12.16 18.74 10.63 33.93 18.56 47.78 25.32 9.96-.34 15.86-1.69 19.24-2.53-4.22 1.69-9.12 4.22-14.52 5.06 100.96 48.62 222.5 78.67 331.05 78.67 118.17 0 241.58-36.12 336.79-82.72v.36zM-40399.86 7467.09c46.88.67 69.42-9.29 90.52-17.15-13.91 13.48-28.01 27.83-43.12 41.93-15.15.23-29.87-.38-43.83-3.81 1.19-8.44-1.1-14.77-3.57-20.97z" class="fil8"/><path d="M-40605.3 7607.4c2.28 5.58 3 12.3 3 18.25 0 0 17.01 2.86 52.55 3.48 34.54-16.77 59.69-32.35 100.38-59.22-56.41 3.62-58.55 50.17-155.94 37.49h.01z" class="fil8"/><path d="m-40942.27 6055.02.1-73.65c7.14 16.34 13.91 41.45 14.38 60.88-5.33 3.48-10.43 7.34-14.52 12.77h.04zM-40942.45 6080.12v27.87l17.24.38 2.57-11.34c-13.77-1.33-15.14-10.04-19.77-16.86l-.04-.05zM-40894.91 6080.12l7.81-17.81 8.67 18-8 11.34zM-40907.25 6107.95l3.28-10.25c5.81.86 8.72 5.29 10.63 11.01l-13.91-.76zM-40904.68 6128.48l10.63-.39.38 15.77c-4.67-3.81-9.19-7.76-11.01-15.39v.01zM-40831.47 6055.42l.33-74.11c-8.94 13.33-15.7 37.48-14.34 59.93 6.08 5.23 9.96 8.78 14.01 14.18zM-40831.47 6080.06l-.51 28.87-17.22.34-3.04-12.83c11.48-2.7 16.89-10.3 20.77-16.38zM-40865.4 6108.25l-3.38-10.3c-5.74.85-8.78 5.24-10.64 10.98l14.02-.68zM-40868.28 6128.34l-10.63-.33-.34 15.7c4.73-3.89 9.28-7.77 10.97-15.37z" class="fil1"/></g></g></svg>