<svg xmlns="http://www.w3.org/2000/svg" xml:space="preserve" width="210mm" height="297mm" style="shape-rendering:geometricPrecision;text-rendering:geometricPrecision;image-rendering:optimizeQuality;fill-rule:evenodd;clip-rule:evenodd" viewBox="0 0 21000 29700"><defs><style>.str0{stroke:#000;stroke-width:26.46;stroke-miterlimit:22.9256}.fil0{fill:none}.fil1{fill:#fcd116;fill-rule:nonzero}</style></defs><symbol id="_ArchTick-1" viewBox="-387035.47 125177.29 20.57 20.57"><path id="path3004-1" d="m-387026.11 125188.5 1.85-1.85" class="fil0 str0"/></symbol><symbol id="_ArchTick-9-1" viewBox="-387035.47 125177.29 20.57 20.57"><path id="path3230-9" d="m-387026.11 125188.5 1.85-1.85" class="fil0 str0"/></symbol><symbol id="_ArchTick-9" viewBox="-387035.47 125177.29 20.57 20.57"><path id="path3230" d="m-387026.11 125188.5 1.85-1.85" class="fil0 str0"/></symbol><symbol id="_ArchTick" viewBox="-387035.47 125177.29 20.57 20.57"><path id="path3004" d="m-387026.11 125188.5 1.85-1.85" class="fil0 str0"/></symbol><g id="Слой_x0020_1"><g id="_1470322384512"><path d="M-48917.04 3848.74h3200v3200h-3200z" class="fil1"/><path d="M-48917.04 3848.74v3200h823.72l1039.04-1275.72h1337.24v-648.56h-1337.24l-1039.04-1275.72z" style="fill:#0000be;fill-rule:nonzero"/><path d="m-47614.12 5448.74-1302.92 1600v-3200z" style="fill:#dc143c;fill-rule:nonzero"/><path d="M-48434.28 5182.54c-40.61-.64-79.49 29.55-103.71 47.98-82.8 68.27-126.56 153.68-126.33 249.36.27 110.09 51.49 229.21 175.94 234.36 72.47 3 124.57-3.63 159.97-23.27 22.65 13.56 49.82 21.93 81.86 23.28 98.86 4.15 140.04-21.32 169.82-64.76 33.27-48.53 31.59-133.27-16.03-146.65-99.42-27.94-104.34 39.86-87.2 75.1 15.3 31.44 50.94 2.39 46.38-4.37-19.23-28.48-2.56-29.14 6.76-27.9 8.99 1.19 14.07 9.54 12.37 39.65-1.46 25.87-11.2 53.95-39.74 68.97-36.49 19.2-89.25 21.74-129.54-7.52 33.3-47.32 52.94-74.25 47.33-115.82-3.26-24.1-11.03-45.63-22.05-64.39 53.95-56.68 112.39 24.85 159.76-.13 99.5-52.45-35.41-136.11-51.54-105.67-13.81 26.05 42.63 35.68 26.61 56.87-24.38 18.33-78.89-76.42-143.76-5.74 5.12-34.5.72-70.1-36.97-88.24 25.6-49.69 60.95-82.94 97.37-81.82 65.88 2.03 22.35 64.69 6.43 53.98 33.57-73.48-76.16-48.36-49.76 19.6 7.95 20.47 23.08 21.48 43.82 21.48 24.96 0 61.55-16.17 79.32-63.92 6.85-14.08 1.78-34.03-6.89-44.15-56.69-66.13-120.58-25.62-155.92 1.69-29.67 22.93-52.17 52.99-70.51 80.65-.5.65-.96 1.36-1.46 2.02-39.37 2.25-77.93 21.97-94.94 55.54-2.13 4.63-4.01 9.07-5.69 13.37-45.21 6.85-84.08 24.4-81.07 51.47 4.52 40.54 35.39 51.48 71.3 56.55.65 13.93.44 28.68-2.89 45.94-4.24 22.01-11.46 58.21-38.04 36.94-11.66-9.34 22.13-57.31-8.52-54.1-28.19 2.96-38.88 44.05-23.64 71.95 14.13 25.87 51.89 40.01 85.35 11.54 24.25-20.64 31.12-62.71 41.69-90.69 2.09 49.52 15.4 97.15 41.47 133.82-.63.46-1.2.95-1.82 1.41-59.71 43.86-202.67 26.6-215.17-121.76-3.42-40.6 2.78-87.38 14.65-129.06 16.82-59.05 77.1-166.23 133.42-164.55 66.23 1.97 43.9 54.57 17.42 54.29-13.01-.15 2.54-16.39 2.54-29.88 0-30.17-74.14-4.67-54.55 45.02 8.31 21.06 17.9 20.95 39.56 20.95 26.05 0 57.45-12.81 77.12-61.47 6.05-14.97 1.86-35-7.19-45.4-20.35-23.38-42.09-32.17-63.36-32.51l.03-.01zm48.58 169.21c-4.48 9-8.54 18.36-12.14 28.03-5.42-.45-10.97-.74-16.65-.84 7.14-13.98 16.99-23.46 28.79-27.19zm63.32 14.37c2.43 2.4 5.14 5.18 7.46 7.87 7.07 8.23.6 24.21-4.7 31.22a187.93 187.93 0 0 0-12.32-6.85c2.75-11.07 5.95-21.84 9.56-32.24zm-151.11 58.09c-1.08 8.69-1.42 16.88-1.27 24.76-12.35-3.42-21.55-8.27-22.94-15.33 4.04-5.63 12.73-8.55 24.21-9.43zm46.77 4.2c4.72.95 9.58 2.19 14.43 3.4-1.57 8.08-2.91 16.23-3.9 24.44-3.44-.13-6.79-.31-10.55-.54-.59-9.59-.56-18.71.05-27.3h-.03zm153.48 11.52.23 5.67c-.44-.55-.91-1.05-1.36-1.58.38-1.37.76-2.7 1.13-4.09zm-68.17 19.05c31.19 20.31 48.55 51.94 44.68 77.09-3.36 21.83-13.04 41.58-27.28 59.85-8.5-18.75-14.42-41.58-16.71-69.09-1.83-22.14-2.26-44.9-.69-67.85z" class="fil1"/></g></g></svg>