<svg xmlns="http://www.w3.org/2000/svg" xml:space="preserve" width="210mm" height="297mm" style="shape-rendering:geometricPrecision;text-rendering:geometricPrecision;image-rendering:optimizeQuality;fill-rule:evenodd;clip-rule:evenodd" viewBox="0 0 21000 29700"><defs><style>.str3{stroke:#000;stroke-width:32.35;stroke-miterlimit:22.9256}.str8{stroke-width:26.28;stroke-linecap:round;stroke-linejoin:round}.str1,.str6,.str8{stroke:#000;stroke-miterlimit:22.9256}.str6{stroke-width:26.33;stroke-linecap:round;stroke-linejoin:round}.str1{stroke-width:32.35}.str1,.str2,.str7{stroke-linecap:round;stroke-linejoin:round}.str2{stroke:#000;stroke-width:4.6;stroke-miterlimit:22.9256}.str7{stroke-width:25.12}.str0,.str4,.str7{stroke:#000;stroke-miterlimit:22.9256}.str4{stroke-width:4.76;stroke-linecap:round;stroke-linejoin:round}.str0{stroke-width:26.46}.fil0{fill:none}.fil4{fill:#f1e632}.fil3{fill:#fff}</style></defs><symbol id="_ArchTick" viewBox="-387035.47 125177.29 20.57 20.57"><path id="path3004" d="m-387026.11 125188.5 1.85-1.85" class="fil0 str0"/></symbol><symbol id="_ArchTick-1" viewBox="-387035.47 125177.29 20.57 20.57"><path id="path3004-1" d="m-387026.11 125188.5 1.85-1.85" class="fil0 str0"/></symbol><symbol id="_ArchTick-9-1" viewBox="-387035.47 125177.29 20.57 20.57"><path id="path3230-9" d="m-387026.11 125188.5 1.85-1.85" class="fil0 str0"/></symbol><symbol id="_ArchTick-9" viewBox="-387035.47 125177.29 20.57 20.57"><path id="path3230" d="m-387026.11 125188.5 1.85-1.85" class="fil0 str0"/></symbol><g id="Слой_x0020_1"><g id="_1470325572960"><path d="M-54768.57 3984.43h3200v3200h-3200z" style="fill:#e1252a"/><path d="M-54768.57 3984.43h1600v3200h-1600z" style="fill:#68b03b"/><path d="M-53694.79 6272.69s295.21 277.25 511.16 277.25c302.77 0 486.16-338.47 501.8-365.57l-221.62-185.32c-98.86 73.17-158.99 103.95-280.19 81.31-98.72-18.44-196.4-122.4-196.4-122.4l-314.75 314.73zM-53924.67 6137.75l387.4-387.38c5.99-6 15.72-6 21.71-.01l31.9 31.91c5.99 5.99 5.99 15.71 0 21.7l-387.4 387.39c-5.99 6-15.71 6-21.71 0l-31.9-31.89c-5.99-6-5.99-15.72 0-21.72z" class="fil3 str1"/><path d="M-53923.76 6136.85c-27.99-39.06 1.68-36.5 16.78-82.42 13.81-41.99-11.76-81.62 96.44-189.81 108.19-108.19 147.82-82.62 189.82-96.43 45.92-15.1 43.35-44.77 82.42-16.79l-385.46 385.45z" class="fil3 str1"/><path d="M0 0h1298.79v2422.1H0z" class="fil3 str2" transform="matrix(.038 -.03799 .038 .03799 -53942.3 5782.23)"/><path d="M-53394.34 5786.55c-18.4.02-36.07 7.34-49.09 20.36a69.553 69.553 0 0 0-20.36 48.16l-34.87-34.87-356.3 356.29 128.27 128.26 63.45-63.45 113.14-.1 116.18-116.19.1-113.13 63.43-63.42-22.94-22.93a69.535 69.535 0 0 0 48.16-20.36 69.56 69.56 0 0 0 20.36-49.1c0-18.42-7.32-36.12-20.36-49.16a69.59 69.59 0 0 0-49.16-20.36h-.01zm69.53 105.04c9.02-.01 17.67 3.58 24.05 9.96a33.984 33.984 0 0 1 9.96 24.04 34.007 34.007 0 0 1-34.01 34.01c-9.01 0-17.67-3.58-24.05-9.96a34.057 34.057 0 0 1-9.95-24.05c0-9.01 3.58-17.67 9.95-24.05a34.067 34.067 0 0 1 24.05-9.96v.01z" class="fil3 str1"/><path d="m-53769.17 6089.41 90.29 90.29 109.64.07 73.97-73.97-.07-109.63-90.29-90.3z" class="fil3 str1"/><circle r="524.85" class="fil3 str2" transform="matrix(.038 -.03799 .038 .03799 -53615.8 6059.25)"/><circle r="1259.81" class="fil3 str2" transform="matrix(.038 -.03799 .038 .03799 -53615.8 6059.25)"/><ellipse class="fil3 str2" rx="518.05" ry="696.99" transform="matrix(.038 -.03799 .038 .03799 -53761.2 6191.05)"/><ellipse class="fil3 str2" rx="518.05" ry="696.99" transform="matrix(.038 -.03799 .038 .03799 -53484 5913.93)"/><path d="m-53875.83 5899.75 100.42-100.42c4.87-4.88 12.78-4.88 17.66 0l2.25 2.25c4.87 4.88 4.87 12.78 0 17.65l-100.43 100.43c-4.87 4.87-12.78 4.87-17.65 0l-2.25-2.25c-4.88-4.88-4.88-12.79 0-17.66z" class="fil3 str1"/><path d="M-52578.21 5765.28c-1.1.01-2.2.04-3.3.09-17.55.89-34.51 6.93-51.71 15.37-34.42 16.89-70.64 44.17-109.32 71.29-18.1 12.69-36.67 25.39-55.11 37.89.02-.12.02-.27.02-.39a69.458 69.458 0 0 0-23.85-52.41 69.524 69.524 0 0 0-45.67-17.11c-20.09 0-39.21 8.7-52.42 23.85a69.586 69.586 0 0 0-17.1 45.67 69.533 69.533 0 0 0 42.47 63.92c-2.54 1.61-5.58 3.59-8 5.11l-16.74 10.51 9.9 17.11c18.26 31.55 13.57 77 13.44 128.89l-.02 9.36 75.43 65.72 9.27-1.3c51.39-7.23 95.77-18.1 129.52-4.34l18.31 7.47 8.12-18.03c20.53-45.58 52.53-112.06 83.66-172.74 21.57-42.03 43.64-81.65 55.64-118.05 6.01-18.2 9.67-35.82 8.15-53.33-1.52-17.51-9.39-34.98-23.73-47.47-12.53-10.92-28.18-16.42-43.65-17.03-1.1-.05-2.21-.06-3.31-.06v.01zm-647.39 214.49c8.2 0 16.14 2.97 22.34 8.36a34.044 34.044 0 0 1 11.67 25.65c0 8.21-2.97 16.15-8.37 22.34a34.023 34.023 0 0 1-25.64 11.67c-8.21 0-16.15-2.98-22.34-8.37a34.039 34.039 0 0 1-11.67-25.64c0-8.21 2.97-16.15 8.36-22.34a34.044 34.044 0 0 1 25.65-11.67z" class="fil3 str3"/><path d="M-52558.21 5813.36c6.6 5.75 9.02 11.05 9.81 20.1.79 9.06-1.23 21.78-6.23 36.94-10.01 30.31-31.29 69.48-53.2 112.18-28.28 55.12-56.03 112.79-76.78 158.02-41.55-10.16-83.49-.02-123 6.24l-46.79-40.77c.78-40 5.09-82.92-10.67-122.7 41.97-26.75 95.29-62.14 146.02-97.69 39.3-27.55 75.18-54 103.84-68.06 14.33-7.03 26.66-10.77 35.74-11.23 9.07-.46 14.66 1.22 21.26 6.96v.01z" class="fil3 str3"/><circle r="684.1" class="fil3 str4" transform="matrix(.04195 .03654 -.03655 .04195 -52755.8 6040.09)"/><circle r="554.91" class="fil3 str4" transform="matrix(.04195 .03654 -.03655 .04195 -52679.1 5952.08)"/><circle r="382.21" class="fil3 str4" transform="matrix(.04195 .03654 -.03655 .04195 -52614.9 5878.39)"/><path d="m-52582.88 5732.12 108.39 94.44c3.8 3.31 4.2 9.08.88 12.88l-3.85 4.43c-3.31 3.8-9.09 4.2-12.89.88l-108.39-94.43c-3.8-3.32-4.2-9.09-.88-12.89l3.85-4.42c3.31-3.81 9.08-4.2 12.88-.89z" class="fil3 str3"/><path d="M-52486.27 5692.92c-20.54-17.9-61.33-4.47-91.46 30.11l-6.95 7.97c.6.32 1.18.71 1.72 1.18l108.38 94.43c.54.46 1.01.97 1.41 1.53l6.94-7.97c30.13-34.58 37.84-76.82 17.3-94.72l-37.34-32.53z" class="fil3 str3"/><path d="m-52545.59 5735.92 62.2 54.18c3.8 3.32 4.2 9.09.88 12.89l-1.71 1.97c-3.31 3.8-9.08 4.19-12.89.88l-62.19-54.18c-3.8-3.32-4.2-9.09-.89-12.89l1.71-1.96c3.32-3.81 9.09-4.21 12.89-.89z" class="fil3 str3"/><path d="M-52890.09 5863.75c-80.24 0-193.73-40.23-293.74-88.13-123.61-59.21-198.92-144.89-202.38-166.18l-25.87 63.18c3.45 21.28 99.97 106.5 223.57 165.71 100.01 47.91 223.65 85.1 307.43 85.1 16.46-11.17 17.42-48.2-9.02-59.68h.01z" class="fil3 str1"/><path d="M-53372.87 5829.1c65.13-8.42 125.69-22.95 189.43-53.48 123.61-59.21 198.92-144.89 202.38-166.18l25.87 63.18c-3.46 21.29-99.97 106.51-223.58 165.71-62.35 29.87-133.89 42.59-199.23 47.95-18.35-13.56-20.72-52.05 5.12-57.18h.01z" class="fil3 str1"/><path d="M-53183.63 5500.6c-116.78 0-182.06 51.1-241.52 109.05-.32 31.27 6.17 47.75 13.26 62.95 67.79-67.8 112.29-117.98 228.25-117.98s160.46 50.18 228.26 117.98c7.08-15.2 13.58-31.68 13.26-62.95-59.45-57.95-124.73-109.05-241.51-109.05h0z" class="fil3" style="stroke:#000;stroke-width:32.35;stroke-linecap:round;stroke-miterlimit:22.9256"/><g id="a"><path d="M-53131.17 4718.94c64.87-70.85 135.85 59.84 24.49 110.21 159.59-52.18 84.71 159.68-19.62 162.36 159.87-4.55 15.11 116.25-25.3 149.05 6.82-9.07 15.13-13.73 27.15-13.73 53.54 0-8.97 74.19-20.66 91.51-16.24 51.85-16.49 109.06-12.36 163.65-11.67 10.18-19 16.52-35.2 16.89-31.85-6.4-43.63-22.96-29.61-55.29 14.71-53.7-5.58-127.99-29.11-176.13-10.75-38.12-119.3-91.66-34.16-136.24-136.97-65.61-121.73-267.35 8.86-170.51-72.32-41.13-114.03-171.14-7.07-151.42-27.87-38.34-3.29-88.82 41.31-48.15-18.85-73.31 107.91-71.55 82.3-.64 59.55-39.23 66.86 28.36 28.98 58.44h0z" class="fil4 str6"/><path d="m-53187.04 5236.64-13.83-607.94M-53195.89 4847c-39.6-29.65-80.35-55.8-115.11-100.13M-53194.47 4821.95c39.54-18.66 76.8-43.12 106.08-87.87M-53192.23 5008.2c-52.44-32.03-98.72-72.52-138.73-121.63M-53193.11 4969.95c43.71-30.52 86.72-44.21 131.59-102.79M-53189.1 5145.8c-25.33-30.5-53.69-54.13-84.8-71.59M-53190.11 5101.31c29.91-33.44 56.59-63.79 94.31-74.47M-53250.17 4686.54c11.82 24.98 31.61 39.63 51.85 53.7" class="fil0 str6"/></g><path d="M-53653.66 4893.64c-3.33-91.59 132.41-50.27 90.43 58.53 73.56-142.31 164.48 51.84 95.36 123.5 105.62-110.12 88.09 68.91 82.58 118.26-1.43-10.74 1.1-19.47 9.27-27.52 36.39-35.83 43.56 56.45 47.22 76.05 23.66 46.11 61.79 85.18 101.15 119.51-1.11 14.74-1.86 23.95-12.62 35.05-25.94 16.97-45.03 13.6-57.15-17.77-25.94-46.35-89.47-83.26-137.69-100.24-32.83-18.71-142.46 17.56-114.44-69.74-137.03 47.09-261.72-100.25-108.12-121.85-76.7 20.46-192.09-39.99-106.18-98.2-44.61-7.4-61.69-58.17-4.15-60.38-61.88-37.22 25.46-120.88 55.53-55.53 14.21-66.53 64.43-25.48 58.81 20.33h0z" class="fil4 str7"/><path d="m-53345.06 5282.96-416.39-404.01M-53611.93 5024.02c-46.76 6.35-91.97 15.85-145.28 8.99M-53627.73 5006.04c14.39-39.16 23.34-80.73 13.29-130.74M-53501.52 5131.15c-57.08 13.33-115.65 16.79-175.73 10.18M-53527.73 5105.73c9.28-50 29.36-88.1 20.64-157.96M-53407.27 5222.6c-37.64-3.78-72.74-.85-105.57 8.1M-53437.75 5193.02c-2.05-42.74-4.23-81.24 14.26-113.75M-53756.24 4951.27c24.76 9.08 48.02 5.79 71.19 1.8" class="fil0 str7"/><path d="M-52642.81 4980.88c91.59-3.33 50.26 132.4-58.53 90.42 142.31 73.57-51.84 164.49-123.51 95.37 110.12 105.62-68.91 88.09-118.26 82.57 10.73-1.43 19.46 1.1 27.51 9.27 35.84 36.39-56.44 43.56-76.04 47.22-46.12 23.66-85.18 61.79-119.52 101.15-14.74-1.11-23.95-1.86-35.05-12.62-16.97-25.94-13.6-45.03 17.77-57.14 46.35-25.94 83.27-89.47 100.24-137.7 18.72-32.83-17.55-142.45 69.75-114.43-47.1-137.03 100.25-261.72 121.84-108.12-20.46-76.69 40-192.09 98.2-106.18 7.41-44.61 58.18-61.7 60.39-4.15 37.22-61.88 120.88 25.46 55.53 55.53 66.54 14.21 25.48 64.43-20.32 58.81h0z" class="fil4 str7"/><path d="m-53032.14 5289.47 404.01-416.38M-52773.2 5022.61c-6.35-46.76-15.85-91.96-8.98-145.27M-52755.22 5006.81c39.16 14.39 80.74 23.34 130.75 13.29M-52880.33 5133.02c-13.33-57.08-16.79-115.65-10.18-175.73M-52854.91 5106.81c50.01 9.28 88.1 29.35 157.97 20.64M-52971.77 5227.26c3.78-37.63.84-72.73-8.11-105.56M-52942.2 5196.79c42.75-2.05 81.24-4.23 113.76 14.25M-52700.45 4878.3c-9.07 24.76-5.78 48.02-1.8 71.19" class="fil0 str7"/><g id="b"><path d="m-53424.32 5374.86 41.15 117.54c-34.23 11.89-136.01 26.15-150-13.82-13.99-39.97 74.62-91.83 108.85-103.72z" class="fil4 str8"/><path d="M-53442.06 5371.24s0 0 0 0c29.36-10.2 61.03-6.76 83.02 9.03 10.79 7.74 18.67 18.07 22.82 29.91 4.14 11.84 4.42 24.82.8 37.58-7.38 25.97-30.02 48.26-59.39 58.46 0 0 0 0 0 0l-47.25-134.98z" class="fil4 str8"/><path d="m-53424.66 5373.88 41.15 117.54c-34.24 11.89-136.01 26.15-150.01-13.82-13.99-39.97 74.63-91.83 108.86-103.72h0zM-53357.8 5392.65l14.94 42.66c7.74-2.68 26.88-16.98 21.8-31.49-5.08-14.51-28.99-13.86-36.73-11.17h-.01z" class="fil4 str8"/><path d="M-53442.4 5370.27s0 0 0 0c29.36-10.2 61.03-6.76 83.01 9.02 10.8 7.75 18.68 18.08 22.83 29.92 4.14 11.84 4.42 24.82.8 37.58-7.38 25.97-30.02 48.26-59.39 58.46 0 0 0 0 0 0l-47.25-134.98z" class="fil4 str8"/></g><path d="m-52972.5 5374.86-41.15 117.54c34.24 11.89 136.01 26.15 150-13.82 13.99-39.97-74.62-91.83-108.85-103.72z" class="fil4 str8"/><path d="M-52954.76 5371.24s0 0 0 0c-29.37-10.2-61.03-6.76-83.01 9.03-10.8 7.74-18.68 18.07-22.82 29.91-4.15 11.84-4.43 24.82-.81 37.58 7.37 25.97 30.02 48.26 59.39 58.46 0 0 0 0 0 0l47.25-134.98z" class="fil4 str8"/><path d="m-52972.16 5373.88-41.15 117.54c34.24 11.89 136.01 26.15 150.01-13.82 13.99-39.97-74.63-91.83-108.86-103.72h0zM-53039.02 5392.65l-14.94 42.66c-7.74-2.68-26.88-16.98-21.8-31.49 5.08-14.51 28.99-13.86 36.74-11.17h0z" class="fil4 str8"/><path d="M-52954.42 5370.27s0 0 0 0c-29.37-10.2-61.03-6.76-83.01 9.02-10.8 7.75-18.68 18.08-22.82 29.92-4.15 11.84-4.43 24.82-.81 37.58 7.37 25.97 30.02 48.26 59.39 58.46 0 0 0 0 0 0l47.25-134.98z" class="fil4 str8"/></g></g></svg>