<svg xmlns="http://www.w3.org/2000/svg" xml:space="preserve" width="210mm" height="297mm" style="shape-rendering:geometricPrecision;text-rendering:geometricPrecision;image-rendering:optimizeQuality;fill-rule:evenodd;clip-rule:evenodd" viewBox="0 0 21000 29700"><defs><linearGradient id="id0" x1="-57910.47" x2="-57910.47" y1="29279.97" y2="29374.4" gradientUnits="userSpaceOnUse"><stop offset="0" style="stop-opacity:1;stop-color:#7e5827"/><stop offset="1" style="stop-opacity:1;stop-color:#010101"/></linearGradient><style>.str1,.str2{stroke-miterlimit:22.9256}.str1{stroke:#010101;stroke-width:7.7}.str2{stroke-width:23.33}.str2,.str4,.str6{stroke:#010101}.str6{stroke-width:16.1;stroke-miterlimit:22.9256}.str4{stroke-width:1.87}.str0,.str3,.str4{stroke-miterlimit:22.9256}.str3{stroke:#010101;stroke-width:23.33;stroke-linejoin:round}.str0{stroke:#000;stroke-width:26.46}.fil0{fill:none}.fil7{fill:#010101}.fil4{fill:#fed500}.fil9{fill:#fed8ae}.fil5{fill:#fff}.fil1,.fil10,.fil11{fill:#010101;fill-rule:nonzero}.fil1,.fil11{fill:#9b1b2c}.fil1{fill:#d4af35}.fil12,.fil13,.fil14{fill:#fed500;fill-rule:nonzero}.fil12,.fil13{fill:#fed8ae}.fil12{fill:#fff}</style></defs><symbol id="_ArchTick-9" viewBox="-387035.47 125177.29 20.57 20.57"><path id="path3230" d="m-387026.11 125188.5 1.85-1.85" class="fil0 str0"/></symbol><symbol id="_ArchTick" viewBox="-387035.47 125177.29 20.57 20.57"><path id="path3004" d="m-387026.11 125188.5 1.85-1.85" class="fil0 str0"/></symbol><symbol id="_ArchTick-9-1" viewBox="-387035.47 125177.29 20.57 20.57"><path id="path3230-9" d="m-387026.11 125188.5 1.85-1.85" class="fil0 str0"/></symbol><symbol id="_ArchTick-1" viewBox="-387035.47 125177.29 20.57 20.57"><path id="path3004-1" d="m-387026.11 125188.5 1.85-1.85" class="fil0 str0"/></symbol><g id="Слой_x0020_1"><g id="_1470329293952"><path d="M-59465.72 28679.89h2992.34v3200h-2992.34z" class="fil1"/><path d="M-59465.72 28784.42h2992.34v2990.94h-2992.34z" style="fill:#205aa9;fill-rule:nonzero"/><path d="M-57896.11 29123.78c-134.62-.9-208.42 99.74-211.59 208.91-3.13 117.82 54.46 180.37 136.41 201.7 2.7-10.4 3.13-21.76 3.6-38.03-121.1-30.82-71.57-268.79 61.67-268.32 117.51.43 188.66 222.99 58.97 269.24.43 16.8 1.8 28.52 5.87 38.99 88.27-19.95 145.01-86.99 145.85-202.56 0-107.48-78.78-209.02-200.77-209.88l-.01-.05z" class="str1" style="fill:#d5af31"/><path d="M-57899.29 29141.44c107.12 0 190.45 89.71 190.45 198.51 0 108.79-86.4 189.92-193.58 189.92-107.11 0-190.45-69.81-190.45-192.17.04-108.74 86.46-196.26 193.58-196.26z" class="fil4 str1"/><path d="M-57996.4 29581.87c30.1-21.07 35.34-40.16 37.29-73.12 33.38 26.98 75.92 22.38 103.37 4.57 3.28 37.56 13.71 54.03 42.54 66.51-4.6 33.66-174.72 35.64-183.2 2.04zm524.06 519.66c0-5.27 0-40.15 7.85-40.15 18.95.65 8.52 134.35 9.79 157.44 1.33 23.05-1.95 29.65-19.64 29.65-39.27.64-15.69-116.58-24.23-184.43-1.32-11.84 9.81-7.89 12.46-5.92 9.16 7.27 5.87 120.54 9.16 121.19 5.3 1.27 5.3-60.6 4.61-77.78z" class="fil5"/><path d="m-57690.88 29578.61 56.26-71.8c-66.75-161.37-9.16-435.35 171.44-347.77 296.41 159.41 162.29 864.15 170.75 1109.16 8.54 239.74 27.49 501.23 81.1 690.94-15.67-6.61-47.09-1.97-53.65-1.97 4.54 61.28 28.13 119.89 37.29 161.39-68.71-.64-130.21-92.22-157.03-160.7l-24.21 22.41-3.91-27.68 27.49-25.72c-58.91-134.34-101.4-218.01-128.9-707.41 53.68-80.37 69.35-174.56 53.68-341.17-13.04-142.94-41.86-305.66-230.31-299.68z" class="str2" style="fill:#d4af35"/><path d="M-57403.63 29990.93c-9.79 1.33-2.6-67.21-5.26-127.78l-20.28 3.3c3.29 139.64-15.03 228.54 26.81 222.61 36.66-5.28 25.55-52.05 28.77-231.84l-20.92 3.95c-2.61 69.81 5.94 127.09-9.12 129.76z" class="fil5 str2"/><path d="M-58270.56 29847.29c-261.71 278.63-159 100.81-270.87 214.74-33.38 34.23-9.81 72.46 28.76 102.77 45.14 36.2 65.43 1.33 83.08-32.91 20.92-11.2 29.45-25.71 34.7-46.78 37.29-22.4 68.01-34.93 113.85-71.78-1.33 54.67-26.82 524.96-34.7 582.25 15.68 152.78 62.14 292.42 140.65 438.66l37.93 39.5c1.95 63.27 6.52 121.88 7.84 139.65 10.49 113.97-115.17 82.34-117.77 222.6 170.75-17.75 116.45-46.12 211.97-104.04 72.62-44.11 5.24-68.48 28.76-183.1 52.35 26.99 132.81 31.63 168.16 27.69 1.32 37.53-43.18 91.55 22.25 126.45 40.57 21.76 52.97 122.51 191.03 100.1 3.92-113.27-109.93-74.46-114.48-248.32 49.75-10.55 244.06-119.2 356.59-225.92-67.39-144.27-96.85-219.36-129.53-708.05 64.8-109.33 66.76-207.47 57.6-341.17-62.85-511.15-388.02-158.09-393.21-382.03 129.53-46.13 58.91-268.06-58.22-268.06-133.46-.63-181.24 237.12-60.88 267.41-3.17 200.22-209.95-102.77-303.51 350.35v-.01z" class="fil7"/><path d="M-57536.45 29637.22c13.09 17.76 22.26 29.65 34.02 50.72 45.83 3.94 13.71-128.43-18.33-283.26l-9.8 26.36c21.62 123.84 32.73 176.52 17.64 179.84-8.53 1.97-15.69-86.3-28.13-159.41l-14.41 44.79c20.34 121.17 19.01 140.96 19.01 140.96zm26.18-253.59c39.88 146.24 61.5 235.15 90.28 217.38 51.7-32.96-.65-179.84-66.76-274.67l-9.17 20.42c21.61 46.78 71.31 171.26 56.26 179.16-7.2 3.95-34.68-96.16-62.14-164.69l-8.47 22.4z" class="fil5 str3"/><path d="M-57387.95 30390.08c-34.7 4.59-38.62-81.01-43.17-266.77l17.64-3.31c3.29 46.77-2.6 144.91 10.49 143.57 15.04-1.33 9.16-61.28 7.19-146.89l19.66-4.58c2.6 179.84 22.25 273.33-11.81 277.98zm-74.59 50.72c-8.53 0-7.84-98.13-13.08-137.66l-18.34 2.62c18.34 233.81 16.38 271.35 42.54 270.08 33.38-1.97 22.89-36.91 6.53-276l-18.34 1.33c3.34 47.4 13.77 139.63.69 139.63zm20.29 296.37 32.06 105.39c17.63-9.23 17-32.26-24.85-239.73l-20.3 3.94c13.77 69.81 28.82 125.81 13.09 130.4zm-38.57-584.9c5.26-12.54 11.77-39.53 18.33-57.99 9.81 124.49 11.77 176.55-14.41 181.13-28.77 4.58-24.21-29.66-28.13-68.47l12.45-28.33c4.56 11.2 1.96 36.9 9.16 33.6 9.11-4.59 4.56-48.06 2.6-59.94z" class="fil5 str2"/><path d="M-58132.5 29857.22s0 9.23 11.76 10.56c-2.6 83.63 13.09 145.55-1.31 190.35-24.24 76.43-47.11 153.49-81.8 585.54-3.29 38.88 37.28 49.4 50.37 56.65 12.45 109.33 26.8 78.4 26.17 106.04-.62 15.13-13.72-13.19-9.8 254.23l-32.74-34.25c-75.23-133.06-122.33-289.17-137.43-428.79 20.29-256.91 27.51-436.05 34.7-590.84 40.58-25.7 76.56-53.33 107.97-80.37 15.73-30.93 25.6-46.71 32.11-69.12z" style="fill:#9b1b2c"/><path d="M-57990.52 30886.72c13.08 88.27-94.87 140.96-138.06 106.03-4.55-78.4 3.29-150.84 3.29-150.84 77.19-20.43-6.57 12.53-17.01-139.62 50.38 15.79 87.69 15.79 147.23 15.79 17 75.72-49.75 113.28 4.55 168.64z" class="fil9 str4"/><path d="m-58128.58 31007.24 1.96 109.34c45.14 32.96 97.48-.64 111.88-23.03.64-57.29 24.22-100.12 18.97-135.04-17 27.67-79.13 79.04-132.81 48.73z" class="fil5 str4"/><path d="M-58014.74 31106.71c-28.76 35.58-73.26 42.14-111.88 24.38 2.6 35.57 5.88 73.76 5.88 106.02 26.16 13.82 84.39-11.19 98.17-31.62.64-35.57 8.47-63.2 7.83-98.78z" class="fil9 str4"/><path d="M-58021.25 31220c-19.64 15.14-38.62 36.91-100.77 30.93-16.99 75.09-106.63 73.76-115.79 171.25 143.29-6.56 119.71-62.56 191.71-98.14 54.26-26.34 30.04-55.29 24.85-104.04z" class="fil5 str4"/><path d="M-57748.4 30704.26c-34.02 9.88-73.28 13.82-146.55 13.17-9.17 99.47 31.41 82.98 22.89 119.9-25.54 108 89 127.79 128.9 73.12 7.16-41.55 4.55-85.66-5.24-206.19zm-24.22 107.36c3.94 11.21-26.17 69.81-47.1 4.59 11.08 5.27 37.25.69 47.1-4.59z" class="fil9 str4"/><path d="M-57870.15 30917.65c-1.96 36.91-3.29 56.01 1.96 94.82 10.49 84.33 94.88 72.48 126.29 37.56l-1.95-126.46c-13.09 27.68-93.56 44.8-126.3-5.92z" class="fil5 str4"/><path d="M-57831.54 31163.36c-8.53-32.27-13.06-47.42-17.63-91.58 35.97 23.05 66.75 22.39 107.27-7.88 1.98 36.21-6.5 100.1-6.5 100.1-24.22 21.07-53.67 17.82-83.14-.64z" class="fil9 str4"/><path d="M-57747.14 31176.54c15.05 155.45 119.74 133.05 113.21 214.07-120.37 17.77-135.4-75.1-176.68-97.49-62.15-33.6-18.32-67.84-20.29-115.95 33.38 20.44 58.28 16.47 83.76-.63z" class="fil5 str4"/><path d="M-58006.89 29628.64c-7.85 7.25-17.01 10.56-35.97 11.2.64 37.56-4.56 86.3-14.42 115.95 3.93 18.45-1.95 30.29-13.71 94.82-3.29 15.79-9.81 19.1-41.21 17.11l3.92 152.82c149.18 0 88.31 29.64 268.91 30.28-5.15-32.6-8.34-65.8-9.16-98.81-18.33 5.3-35.98 16.49-60.88 16.49-73.26 0-139.39-52.69-139.39-127.8 0-75.72 57.59-134.34 131.49-134.34 26.18 0 47.8 8.59 47.8 8.59-38.58-25.71-77.84-56.63-137.38-86.29v-.02zm337.63 856.27 7.84 34.24c-154.42 26.34-121.7-36.22-284.59-34.94l5.23-27.68c126.95.06 111.9 28.38 271.51 28.38h.01zm-280.04 9.86-9.81 43.47c43.82-6.55 94.89 44.79 141.35 84.95 43.82 37.55 158.98 19.8 182.56-25.69-11.76-19.74-20.29-52.71-24.2-66.52-186.49 25.07-97.54-33.6-289.9-36.21zm221.82 156.75c-37.29 5.28-62.82-4.59-89-13.82-16.37 123.84-20.29 192.32-26.82 362.93-.63 21.08 123.02 17.13 122.33 0l-6.51-349.11zm-177.96-84.28s-54.31-40.15-59.53-8.59c-23.58 122.52-36.67 224.6-51.72 402.47-3.29 15.14 69.34 39.51 70.68 23.72 15.72-227.25 40.57-417.6 40.57-417.6zm52.34 472.92c-18.33 9.87-57.57 9.22-84.38-7.25-1.97 25.71-1.97 43.46-3.3 79.03-7.2 18.46 86.35 21.76 88.32 11.21l-.64-82.99zm136.11-388.64c22.25-2.61 52.97-14.51 68.71-27.69 0 0 38.62 260.86 44.5 374.77 1.96 17.13-101.4 23.74-104.68 1.98l-8.53-349.06zm76.55-34.88 8.53-11.21c18.33 42.14 47.79 76.43 71.98 96.81l32.07 274.02c2.6 13.82-62.83 34.93-66.06 21.07-9.23-111.3-46.52-380.69-46.52-380.69zm-308.86 412.95c-42.54-3.94-58.91-25.71-69.98-50.08-3.92 39.53-6.53 68.49-6.53 98.15 0 15.78 74.6 52.68 74.6 33.6l1.91-81.67zm228.38 11.9c-11.13 25.01-109.23 26.98-121.06-3.31-.63 28.32 0 54.66 2.6 80.38 1.32 17.75 121.7 15.14 121.07 1.97l-2.61-79.04zm13.72 1.97c11.77 17.77 109.94 11.84 110.58-5.28 5.87 30.29 5.23 39.53 9.79 71.78 6.52 9.23-84.39 26.35-117.12 13.19-3.23-28.33-1.91-50.09-3.23-79.69h-.02zm120.37-10.56c15.04 9.23 62.15-18.46 62.83-36.21 3.92 21.07 9.17 52.69 10.49 74.46-13.09 14.49-35.34 36.2-62.82 37.54l-10.5-75.79zm-238.77-402.45c-12.45-9.24-36.66-42.14-71.3-58.61-15.69 124.47-28.15 263.47-36.66 415.63-1.34 16.47 78.49 30.29 79.13 7.88 6.58-151.45 14.42-262.12 28.83-364.9zm70.99-420.26c11.55 0 22.73-11.96 19.91-33.01-2.37-19.8-13.17-36.71-19.91-38.41-7.58 2.08-17.53 19.36-19.98 38.41-1.95 21.06 8.38 33.01 19.98 33.01zm-49.42 50.72c0-11.95-11.56-23.16-31.9-20.22-19.53 2.45-35.92 13.65-37.46 20.22 2.02 7.83 18.71 18.12 37.46 20.21 20.34 2.44 31.9-8.27 31.9-20.21zm49.42 50.71c-11.55 0-22.36 11.95-19.98 33.01 2.39 19.79 13.2 36.69 19.98 38.4 7.59-2.07 17.54-19.36 19.91-38.4 2.45-21.06-8.36-33.01-19.91-33.01zm49.43-50.71c-.36 11.94 9.54 23.14 26.7 20.21l3.61-40.86c-.37.43-28.72-7.41-30.31 20.65zm-84.56-35.91c8.39-8.25 7.96-24.74-8.79-37.53-15.57-12.38-34.7-16.49-40.68-12.82-3.99 7 .79 26.42 12.35 41.66 13.56 16.54 29.13 16.96 37.06 8.69h.06zm0 71.8c-8.36-8.27-23.93-7.85-36.66 9.06-11.97 16.11-15.94 35.9-12.34 41.66 6.78 4.1 25.92-.86 40.69-12.8 15.94-13.6 16.74-29.72 8.36-37.97l-.05.05zm72.22 2.07c-6.8 9.49-7.58 24.75 8.78 37.56 9.17 6.99 19.56 11.57 27.51 13.16l.36-42.07c0 .43-18.33-33.82-36.65-8.65zm-2.01-73.87c8.36 8.27 23.95 7.85 36.66-9.06 11.93-16.1 15.94-35.89 12.35-41.65-6.79-4.16-25.92.86-40.7 12.81-15.94 13.16-16.73 29.26-8.38 37.96l.07-.06zm-247.63-497.64c8.38-3.69 16.75-5.39 19.13 5.76 2.02 10.35-2.38 21.87-6.78 24.75-5.99 1.23-16.32-4.17-21.93-12.38-5.63-9.87 1.17-14.83 9.53-18.13h.05zm-63.4 157.6c-3.61-8.64-5.21-17.34 5.55-19.37 9.96-2.06 21.51 2.46 23.95 6.99 1.22 6.19-3.98 16.91-12.34 22.3-8.79 5.76-13.94-1.28-17.16-9.92zm154.26 67.26c-8.37 3.67-16.74 4.95-19.13-5.77-2.01-10.35 2.39-21.86 6.79-24.74 5.98-1.24 16.31 4.15 21.94 12.36 5.6 9.87-1.18 14.83-9.55 18.15h-.05z" class="fil5"/><path d="M-58030.52 29792.53c3.6-8.63 8.38-16.1 17.54-9.87 8.79 5.76 13.57 17.33 12.35 22.3-3.19 5.39-14.36 9.06-23.96 6.98-11.18-2.51-9.53-10.76-5.97-19.41h.04zm65.02 157.59c-8.39-3.67-15.58-8.63-9.54-18.12 5.55-8.65 16.73-13.65 21.92-12.37 5.19 3.3 8.8 14.87 6.78 24.75-2.37 11.13-10.8 9.49-19.12 5.74h-.04zm88.51-222.76c8.37 3.67 15.58 8.64 9.54 18.13-5.57 8.65-16.75 13.66-21.94 12.38-5.19-3.32-8.8-14.89-6.78-24.75 2.39-11.15 10.75-9.49 19.13-5.76h.05z" class="fil5"/><path d="M-58510.5 30074.29c-31.04 23.09-37.78 6.34-12.6-17.22 25.22-23.15 40.52-32.16 79.26-27.2 57.62-54.41 125.12-115.16 178.26-173.61 5.88-6.76 6.73-21.27 8.58-26.29 4.03 6.35 50.44 19.46 56.27 8.16.89 13.13 49.95 20.86 57.16 16.8-7.62 24.9-14.41 37.18-27.44 60.76-68.45 55.72-199.42 151.83-227.39 157.22-13.03 33.54-23.89 43.52-35.12 42.18-21.67-2.29-43.28-45.32-77.03-40.79l.05-.01z" class="fil9" style="stroke:#010101;stroke-width:.7;stroke-miterlimit:22.9256"/><path d="M-57842.03 29946.77c2.6 168.64 64.8 347.1 200.22 355.68 75.22 4.59 195.64-111.31 185.16-351.1-9.8-225.92-62.14-358.29-191.05-366.23-143.25-8.48-207.41 203.58-194.33 361.65zm192.38-316.81c78.49 0 141.98 139.64 141.98 312.22 0 172.59-63.49 312.21-141.98 312.21-78.52 0-141.98-139.62-141.98-312.21 0-172.58 63.46-312.22 141.98-312.22z" class="fil4"/><path d="M-57907.46 29296.7c68.03 0 78.53 53.32 71.31 114.61-7.2 57.26-26.8 101.43-70.67 100.1-39.25-1.34-64.1-42.84-73.27-100.1-9.8-62.62 7.89-114.61 72.63-114.61z" class="fil9 str4"/><path d="M-57893.04 29375.04c9.17-8.59 16.36-11.85 20.29-15.15 3.59-2.54 7.86-3.92 12.25-3.92 5.12 0 10.06 1.87 13.92 5.25.64 3.96-10.49 1.35-13.72 1.97-11.81 1.97-18.97 8.59-32.74 11.85zm-27.45-23.69c7.86 3.95 15.05 9.23 24.85 5.93-13.72-11.2-43.18-19.1-55.63-9.23 16.37 2.67 17.02-.64 30.78 3.3z" class="fil7"/><path d="M-57885.89 29462.93c-5.24 9.87-29.46 13.18-39.89.65 3.11-5.49 8.9-8.88 15.19-8.88 1.94 0 3.88.34 5.74.97 8.47-1.97 14.35.64 18.96 7.26zm-68.6-80.01c-.63-1.33-.63-3.3 0-4.57.64-1.28 1.96-1.33 2.59-.65l.63.65c5.26 7.88 0 30.92-1.95 39.51v.65c-.63 2.61-.63 4.58-.63 6.61v.21c0 1.68.7 3.27 1.95 4.37.63 1.34 1.32 2.61.63 4.59-.63 1.33-5.87-4.59-5.87-7.89 0-2.61 0-5.92.63-9.22v-1.35c1.33-7.19 5.93-28.26 2.02-32.91zm47.73 53.4c-1.96 0-3.91 0-5.87-.64-1.34 0-1.97-.65-3.3-1.34-.64-.64-1.96-.64-2.59-1.32-3.29-1.98-5.24-4.6-5.88-7.26 0-.64.64-1.34 1.32-1.97l1.97-1.97c3.28-3.31 9.16-4.59 15.04-3.96h5.26c1.31 0 1.95.65 3.27.65 4.56 1.32 7.84 3.3 9.79 6.61 0 .63-.62.63-.62 1.33l-1.97 1.97a28.011 28.011 0 0 1-16.42 7.9zm9.22-5.23c2.32.81 4.76 1.27 7.2 1.34 6.92-.63 13.39-3.67 18.33-8.59.64-.64 1.33-1.97 1.96-2.62.64-.64 1.33-1.97 1.33-2.61v-1.33c-1.96-4.6-6.57-7.9-12.45-9.87-1.33 0-2.6-.64-3.93-.64s-2.59 0-3.91-.64h-1.95c-7.23 0-13.09 1.32-17.66 4.59-.64.64-1.95 1.33-2.59 2.61-.64.65-1.32 1.97-1.96 3.31v1.97c.64 3.31 3.3 7.25 7.83 9.85 1.34.65 1.98 1.35 3.31 2 2.53-.06 3.17.63 4.49.63zm15.04-23.74c-.63 0-.63 0 0 0z" class="fil10"/><path d="M-57868.83 29373.07c-5.88 0-9.8 4.58-9.8 10.56 0 5.91 4.56 10.55 9.8 10.55 5.24 0 9.81-4.59 9.81-10.55 0-5.93-4.57-10.56-9.81-10.56z" class="fil7"/><path d="M-57944.05 29393.49c1.95 0 4.55 0 6.51-.64 1.33 0 1.96-.64 3.29-1.34 1.32-.63 1.96-.63 2.59-1.33 3.28-1.98 5.24-4.58 5.88-6.6-.64-.65-.64-1.35-1.32-1.99l-1.97-1.96c-3.28-2.61-9.16-3.94-15.68-3.94l-5.88-.01c-1.32 0-2.59.63-3.28.63-4.56 1.34-8.54 3.32-9.8 6.61 0 .66.63.66.63 1.34l1.96 1.97c4.61 3.31 10.49 6.62 17.07 7.26zm7.19 2.67c-1.96.63-4.56.63-7.19.63-7.22-.63-14.42-3.94-18.34-7.88-.64-.65-1.32-1.97-1.95-2.62-.63-.64-1.33-1.97-1.33-2.61v-1.33c1.96-4.6 6.53-7.9 12.45-9.22 1.32 0 2.59-.65 3.92-.65 1.32 0 2.6 0 3.93-.64h1.95c7.21 0 13.72 1.33 17.64 4.59.63.64 1.96 1.32 2.6 2.62.64.62 1.32 1.96 1.96 2.6v1.98c-.64 3.31-3.93 7.25-7.85 9.86-1.32.65-1.95 1.33-3.28 1.97-1.9 0-3.23 0-4.51.7z" class="fil10"/><path d="M-57985.28 30718.08h79.15c-.63 119.2 28.14 80.37 26.18 191.68-3.29 157.45 20.93 151.51 39.26 254.88-56.27 7.25-113.85-5.28-167.52-27-3.29-107.99 51.7-209.42 15.68-272.69-28.71-52.69 15.74-34.88 7.25-146.87zm245.98 425.49c62.14-11.85 267.59-142.29 346.8-219.37-94.2-219.99-96.84-329.32-124.99-692.25-74.58 95.51-144.56 90.23-201.52 53.33 0 0 27.5 247.68 45.83 355.68 4.55 27.68-65.43 57.97-65.43 57.97 1.97 119.26 18.97 61.97-.69 444.64z" class="fil11"/><path d="m-57658.83 29577.28 56.91-55.32c-114.49-365.54 187.1-516.36 293.12-13.16 35.97 171.89 1.32 405.07-1.96 694.88-2.59 245.7 34.71 547.36 76.55 728.48l-22.25.63c-81.1-420.21-106.01-585.53-95.51-1010.4 7.84-309.59-26.17-555.24-145.9-628.37-33.38-20.43-60.19 99.47-73.96 192.33-11.13 74.45 14.41 98.13 21.61 136.31-26.8-24.32-56.89-40.11-108.61-45.38z" class="fil5 str2"/><path d="M-57876.68 29837.44c0 25.01-18.96 44.79-41.84 44.79-23.58 0-41.85-19.78-41.85-44.79 0-25.02 18.95-44.8 41.85-44.8 22.88 0 41.84 20.43 41.84 44.8z" class="fil12"/><path d="M-58006.21 29588.47c9.81 7.26 11.14 22.41 4.57 34.94 15.68 9.87 103.35 52.69 176.68 117.23 23.58-67.2 58.21-126.46 117.78-153.5-32.74-.64-81.12 7.26-105.33-1.96-9.86 26.98-180.61 21.06-193.7 3.29zm-217.26 129.77c31.43-72.49 74.6-131.74 155.07-131.74-23.58 13.18-14.41 46.78 16.37 52.05.64 36.22-3.28 80.37-11.75 107.37-7.21-9.87-42.54-18.46-54.94-2.62-1.96-15.79-45.14-23.73-58.23-6.6-6.56-15.84-26.85-23.1-46.52-18.46z" class="fil11"/><path d="m-58091.92 29749.17 7.85 1.33c11.12 1.98 18.96 13.17 17 25.01l-11.13 62.56c-1.96 11.84-13.08 19.1-24.21 17.13l-7.83-1.34c-11.13-1.97-18.97-13.18-17.02-25.01l11.14-62.56c1.95-11.85 12.38-19.74 24.2-17.12zm-58.9-7.9 8.52 1.98c11.13 2.62 18.33 13.81 15.68 25.02l-13.72 57.95c-2.59 11.22-13.72 18.46-25.54 16.5l-8.52-1.99c-11.12-2.6-18.34-13.8-15.69-24.99l13.73-57.97c2.65-11.22 14.41-18.46 25.54-16.5zm-56.27-11.19 5.23 1.33c9.25 2.52 15.68 10.97 15.68 20.59 0 1.72-.21 3.44-.63 5.12l-15.05 57.92c-2.24 9.32-10.53 15.89-20.06 15.89-1.85 0-3.69-.26-5.46-.75l-5.24-1.33c-9.25-2.52-15.67-10.96-15.67-20.59 0-1.73.21-3.44.63-5.12l15.04-57.97c2.65-11.15 13.78-18.4 25.53-15.09z" class="fil12"/><path d="M-58498.89 30083.78c.64 6.62-8.54 19.79-19.61 29.65-11.75 9.24-21.61 11.84-22.26 5.28-.62-6.61 8.54-19.77 19.68-29.65 11.11-9.86 21.55-12.54 22.19-5.28zm21.61 10.56c1.33 7.25-9.17 23.73-23.57 36.21-14.41 13.18-26.81 17.76-28.14 10.56-1.32-7.25 9.17-23.72 23.58-36.21 14.35-13.23 26.81-17.81 28.13-10.56zm13.08 23.05c.64 7.25-7.83 21.06-20.29 31.62-11.75 10.57-22.25 13.17-23.58 5.92-.62-7.25 7.85-21.07 20.31-31.63 12.44-9.87 22.88-13.17 23.56-5.91zm21.56 13.81c.63 6.61-7.84 19.78-19.65 29.66-11.76 9.85-21.61 12.53-22.89 6.55-.63-6.55 7.86-19.73 19.67-29.66 11.74-9.86 22.25-12.48 22.87-6.55z" class="fil13 str4"/><path d="m-58144.95 29523.25 45.83 55.31c-54.94 14.5-122.33 40.85-171.44 268.74-46.47 50.08-85.71 88.9-128.9 128.43-32.05 26.35-49.74 45.45-88.32 42.13-42.53 29.65-76.54 56.65-68.7 88.91l-30.73 11.84-43.17-74.45 43.81-32.96c-31.42-24.37-49.07-78.4-50.39-119.2-62.82-62.56-76.56-95.52-87.04-182.45-55.63-44.81-85.72-142.3-87.05-260.85 75.92 54.67 136.11 125.17 151.14 218.66 52.36 45.44 81.82 77.71 94.9 179.84 37.29 25.71 47.78 57.98 55.62 109.97l12.45-9.23c-155.06-920.63 484.8-1022.08 351.99-424.69z" class="fil1 str2"/><path d="M-58319.62 29710.99c-5.25 66.5-3.29 190.33-3.29 190.33 21.62-23.03 35.98-35.55 51.03-53.32l8.52-38.19c-1.32-33.61-.64-67.83-3.29-92.21l-18.32-2.62c-2.6 50.09 7.2 109.97-7.83 104.75-11.77-3.95-8.55-106.71-8.55-106.71s-12.38-2.03-18.27-2.03zm-39.89-112.02c31.42 3.96 40.57-58.6 83.07-214.71l-11.77-25.01c-45.82 113.97-53.66 178.51-63.46 156.1-7.84-19.09 37.3-122.5 50.38-174.55l-11.12-21.07c-39.94 46.78-121.06 270.73-47.1 279.24zm75.86 90.26c32.74 9.86 63.46-125.19 63.46-187.74l-18.32-48.75c-9.16 89.61-19.65 160.7-32.05 155.47-16.37-6.62 12.46-82.35 20.3-175.84l-11.14-25.02c-45.78 208.12-80.47 264.76-22.25 281.88z" class="fil5 str3"/><path d="m-58584.09 30105.12-32.42-55.74 147.23-106.08 28.34 48.97c-28.82 23.56-23.89 16.31-50.43 11.78-14.41 10.88-82.38 46.67-76.56 95.2l-16.21 5.88.05-.01z" class="fil4 str1"/><path d="M-58005.57 29607.56c0 13.83-15.04 25.02-33.37 25.02-18.34 0-33.39-11.19-33.39-25.02 0-13.8 15.05-25.01 33.39-25.01 18.33 0 33.37 11.21 33.37 25.01z" class="fil14"/><path d="m-58125.29 29585.18-51.71-46.77c107.27-534.21-414.82-474.89-298.37 391.25l5.89-3.96 38.61 67.85c-18.33-498.61 70.67-690.94 139.39-702.14 29.45-5.28 82.44 175.84 85.07 205.49 9.81 109.34-39.26 141.6-37.29 246.99 22.88-65.87 43.81-121.81 118.41-158.71z" class="fil12 str2"/><path d="M-58394.85 29608.89c-13.09 149.5-26.17 208.82 15.69 214.08 37.92 5.28 29.45-26.33 39.26-197.58l-18.33-6.61c-9.8 84.95-9.17 125.8-22.89 121.17-10.49-3.32 3.92-82.36 4.55-125.18l-18.28-5.88zm-15.72 229.87c-1.97 42.84-4.57 90.9-1.97 146.89 32.06-27.68 42.54-38.18 68.02-63.26 0-30.28 0-44.79-3.28-75.73l-20.92-1.96c-1.33 28.31 5.87 100.8-9.81 104.74-11.76 2.61-8.53-32.28-11.12-108l-20.92-2.68z" class="fil5 str3"/><path d="M-58482.53 30180.58c13.73-.63 25.54 3.94 53.67-48.11 18.36-9.72 31.19-27.52 34.7-48.1 37.31-23.04 57.6-28.96 114.48-73.1l-20.93 585.58c6.58 91.57 22.89 185.66 22.89 185.66l-89.62 207.47c-6.53-7.27-13.74-14.51-20.94-26.99-33.37 63.24-69.34 127.14-156.39 159.4l22.89-170.61c-16.38-.64-28.14 3.96-40.59 7.9 75.24-291.68 89-537.33 79.84-779.1z" class="fil1 str2"/><path d="M-58393.57 30114.72c-9.81 266.08-23.58 260.85 13.08 264.12 43.17 3.94 26.8-38.88 43.17-303l-20.28 14.5c-9.81 122.51-2.6 148.21-15.04 153.5-11.14 4.59-5.25-33.6-2.61-143.57l-18.32 14.45zm5.24 410.41c9.8-.65 7.21-31.64 11.76-112.01l19.66.63c-6.58 172.59-12.45 250.94-45.14 246.99-35.97-4.59-16.37-106.71-5.25-250.29l17.66 1.34c-7.17 87.62-9.82 113.96 1.31 113.34zm51.08 276.63c9.79-7.25 26.15-119.9 26.15-119.9l10.5 49.39c-22.26 119.89-53.67 214.72-75.92 196.27-14.41-11.83 9.18-87.63 40.59-333.28l15.04 7.9c-.68 60.63-36.02 214.76-16.36 199.62zm-110.63 102.08c11.13 6.61 35.34-114.61 51.71-208.81l17.01 2.61c-13.09 115.26-44.51 289.17-100.14 354.36-35.96 41.49-6.51-175.84 47.11-361.6l18.95 2.62c-25.47 133.75-47.04 203.56-34.64 210.82z" class="fil5 str2"/><path d="M-58461.6 30215.51c11.76 8.59 24.21 13.82 33.37 11.85-18.95 249.65-18.95 453.81-87.68 704.11l-24.85 1.96c53.63-215.98 75.88-434.02 79.16-717.92zm151.14 225.29c-13.71-1.98-9.16-17.11-5.87-115.94l-13.09-4.6c-11.75 220-11.75 250.3 7.85 253.6 3.28-.05 9.79-106.71 11.11-133.06zm13.74-257.55c-13.74 0-7.85-50.72-5.25-131.72l-15.06 10.55c-8.52 196.27-16.36 231.21 9.81 233.17 6.56.63 5.25-15.21 10.5-112z" class="fil12 str2"/><path d="M-58468.8 30193.75c42.55-22.39 28.76-32.25 47.78-48.74 7.21 61.28 7.85 96.22-47.78 48.74z" class="fil14 str2"/><path d="m-57418.04 29628.64-22.89 8.58c2.6 113.28 2.6 196.27 37.94 194.29 39.25-2.6 31.42-25.01 19.65-213.38l-18.96 5.28c1.32 45.45 7.83 117.23-5.25 115.94-7.83-.69-7.83-65.27-10.49-110.71z" class="fil5 str2"/><path d="M-57688.92 29649.05c-39.89 22.41-86.35 113.28-94.88 237.77l104.04 10.56-9.16-248.33zm77.89-2.6-11.14 250.93 106.65-9.87c-9.81-128.47-50.38-204.84-95.51-241.07v.01zm-11.14 305.59 9.17 285.25c56.26-36.92 97.48-140.98 99.44-276.02l-108.61-9.23zm-164.22 9.88c6.57 135.04 41.84 230.56 95.51 271.35l11.12-281.23-106.63 9.88z" class="str6" style="fill:#96995f;fill-rule:nonzero"/><path d="m-57784.44 29892.79 109.24 9.24-8.52-256.22c17.63-15.14 46.46-14.5 67.39-1.97l-9.81 258.2 112.53-9.24c.63 17.76 1.32 47.41 0 61.27l-113.21-7.25 8.53 291.79c-22.89 17.13-55.63 7.26-68.72-3.31l11.13-289.16-111.26 9.22c1.44-58.61 2.07-52.06 2.7-62.56v-.01z" class="fil14 str6"/><path d="M-57959.79 29495.58c33.37 38.17 78.51 36.9 104.05 0 2.59 40.85 7.2 63.89 37.94 85.64-31.43 18.45-160.95 15.78-193.01 0 32.06-4.58 49.06-24.37 51.02-85.64z" class="fil13 str4"/><path d="M-58018.65 29377.7c14.41-174.56 206.77-167.3 223.1-4.59l-25.55.65c6.57-124.49-181.87-125.81-171.43 3.31l-26.12.63z" style="fill:url(#id0);fill-rule:nonzero"/><path d="M-58176.31 30560.64c14.42 20.43 29.44 32.96 59.55 34.94 2.59-5.3 1.32-8.59 0-13.82-35.34-.69-43.87-13.17-59.55-21.12zm480.24 9.92c-14.41 20.43-27.5 29.65-58.23 31.61-1.31-3.3-2.6-7.88-2.6-13.16 35.93-.7 45.1-9.92 60.83-18.45zm-406.34 11.2c21.61 15.14 52.35 22.39 80.48 9.23 0 5.91.64 9.22-.64 15.14-20.29 10.57-59.56 7.26-80.48-9.23-1.32-7.25 0-11.2.64-15.14zm92.93 11.84c21.61 20.42 87.67 15.15 120.36 1.33 1.33 5.28 1.95 9.87 0 15.14-30.1 22.41-97.47 23.73-120.36-3.94-1.95-8.58-.64-8.58 0-12.53zm135.41 2.6c31.4 13.18 81.1 10.57 104.05-5.27 1.94 3.95 5.25 6.57 2.59 15.79a111.22 111.22 0 0 1-56.92 15.68c-16.74 0-33.32-3.81-48.41-11.11-1.96-3.89-2.6-9.18-1.31-15.09z" class="fil12"/><path d="M-57943.42 29373.76c-5.88 0-9.8 4.59-9.8 10.56 0 5.91 4.55 10.56 9.8 10.56 5.24 0 9.81-4.59 9.81-10.56 0-5.97-4.57-10.56-9.81-10.56z" class="fil7"/><path d="M-57380.74 30529.07c-9.81-.64-7.21-31.64-11.76-112l-19.66.63c6.57 172.58 11.13 244.39 43.82 240.42 35.96-4.58 17.63-100.79 6.51-244.37l-17.64 1.34c6.57 88.26 9.85 114.61-1.27 113.98zm53.67 367.51c-11.13 6.55-35.34-114.62-51.71-208.79l-17.01 2.61c13.09 115.24 44.5 289.16 100.13 354.35 35.98 41.5 6.56-175.83-47.1-361.61l-18.96 2.61c26.12 133.76 47.73 202.94 34.65 210.83z" class="fil5 str2"/><path d="M-57459.89 29713.59c5.25 66.52 3.29 190.36 3.29 190.36-1.34-22.4-11.13-109.97-22.26-152.16 0-17.77-.62-35.58-.62-35.58s14.35-2.61 19.59-2.61v-.01z" class="fil5 str3"/><path d="M-58725.91 29549.59c68.71 61.93 50.39 210.14 74.6 142.93 109.24 88.91 52.33 236.49 91.59 173.88 24.22 21.77 38.64 62.56 39.9 100.11l-52.34 37.54c-38.62-26.99-51.71-103.41-56.9-158.72-1.32 49.4-79.84-22.4-83.76-165.96-32.05 9.86-60.18-61.94-64.1-87.64 52.34 40.16-28.12-40.85-20.93-120.54-.69.7 50.96 59.31 71.94 78.4z" class="fil4 str2"/><path d="M-59465.72 28679.89v3200h-103.83v-3200zM-56369.55 28679.89v3200h-103.83v-3200z" class="fil1"/></g></g></svg>